<?xml version="1.0" standalone="no"?>
<!DOCTYPE svg PUBLIC "-//W3C//DTD SVG 1.1//EN" "http://www.w3.org/Graphics/SVG/1.1/DTD/svg11.dtd" >
<svg>
<metadata>
Created by FontForge 20090914 at Wed Oct 19 00:44:46 2011
 By www-data
(c) by Abolfazl Seilsepour - +98 912 591 3420  -  seilsepor@yahoo.com
</metadata>
<defs>
<font id="FarAfaaqBold" horiz-adv-x="0" >
  <font-face 
    font-family="Far.Afaaq"
    font-weight="700"
    font-stretch="normal"
    units-per-em="2048"
    panose-1="0 0 4 0 0 0 0 0 0 0"
    ascent="1638"
    descent="-410"
    bbox="-212.999 -1005 3793 2338"
    underline-thickness="100"
    underline-position="-950"
    unicode-range="U+0020-U+FEFC"
  />
<missing-glyph horiz-adv-x="1200" 
d="M538 1420v-1159c5.33301 -34.667 21.333 -52 48 -52h210c28.667 8 43 22.333 43 43v1174c-7.33301 30.667 -24.333 46 -51 46h-197h1c-28 0 -46 -17.333 -54 -52zM139 5c-20.667 5.33301 -38.333 21.334 -53 48.001c-6 7.33301 -9 19.666 -9 36.999v1468
c0 49.333 25.667 81.333 77 96l30 3h857c54.667 -14 82 -40.667 82 -80v-1464c0 -72 -37.333 -110.667 -112 -116z" />
    <glyph glyph-name=".notdef" unicode="&#x652;&#x64d;" horiz-adv-x="1200" 
d="M538 1420v-1159c5.33301 -34.667 21.333 -52 48 -52h210c28.667 8 43 22.333 43 43v1174c-7.33301 30.667 -24.333 46 -51 46h-197h1c-28 0 -46 -17.333 -54 -52zM139 5c-20.667 5.33301 -38.333 21.334 -53 48.001c-6 7.33301 -9 19.666 -9 36.999v1468
c0 49.333 25.667 81.333 77 96l30 3h857c54.667 -14 82 -40.667 82 -80v-1464c0 -72 -37.333 -110.667 -112 -116z" />
    <glyph glyph-name="copyright" unicode="&#x652;&#x64e;" horiz-adv-x="1881" 
d="M862 1495c125.333 0 247.5 -32 366.5 -96s211.833 -155.5 278.5 -274.5s100 -243.167 100 -372.5s-32.833 -253.333 -98.5 -372s-157.667 -210.5 -276 -275.5s-241.833 -97.5 -370.5 -97.5c-129.333 0 -252.833 32.5 -370.5 97.5s-209.5 156.833 -275.5 275.5
s-99 242.667 -99 372s33.5 253.5 100.5 372.5s160 210.5 279 274.5s240.833 96 365.5 96zM862 1431c-114 0 -225.169 -29.333 -333.502 -88s-193.166 -142.334 -254.499 -251.001s-92 -222 -92 -340s30 -230.833 90 -338.5s144 -191.667 252 -252s220.667 -90.5 338 -90.5
s230 30.167 338 90.5s192.167 144.333 252.5 252s90.5 220.5 90.5 338.5s-30.667 231.333 -92 340s-146.166 192.334 -254.499 251.001s-219.833 88 -334.5 88zM1230 1230l22 -293.999h-41c-26 83.333 -66.167 145.5 -120.5 186.5s-120.166 61.5 -197.499 61.5
c-58 0 -109.333 -12 -154 -36s-81.334 -55.667 -110.001 -95c-21.333 -30.667 -39 -71 -53 -121s-21 -102 -21 -156c0 -148.667 32 -258.167 96 -328.5s148 -105.5 252 -105.5c136 0 245 56.667 327 170l39 -20c-97.333 -142 -231 -213 -401 -213
c-140.667 0 -257 45.333 -349 136s-138 200.667 -138 330c0 134 49 248.333 147 343s223 142 375 142c33.333 0 60.333 -2 81 -6s59 -15 115 -33c16.667 -6 29 -9 37 -9c11.333 0 21 3.16699 29 9.5s16 19.166 24 38.499h41z" />
    <glyph glyph-name="uniE818" unicode="&#x651;&#x64b;" 
d="M676 2028l-2 -117l-476 4v113h478zM681 2199l3 -114l-486 2v119zM703 1853v-115c0 -36.667 -11 -68.667 -33 -96c-29.333 -34.667 -70.333 -52 -123 -52c-56.667 2.66699 -91.334 16.667 -104.001 42c-12.667 -22.667 -50 -34 -112 -34c-54 -4 -95.333 11.333 -124 46
c-22 26.667 -33 58 -33 94v115h129v-92c6 -40.667 20.333 -60.667 43 -60c16.667 2 25 34 25 96v56h131v-56c6.66699 -64 23.334 -96 50.001 -96c19.333 0 26 20.667 20 62l2 90h129z" />
    <glyph glyph-name="uniFC5E" unicode="&#x651;&#x64c;" horiz-adv-x="3" arabic-form="isolated" 
d="M780 1699l0.000976562 -116.999c0 -38 -10.667 -70.333 -32 -97c-30 -34 -71 -51 -123 -51c-57.333 2 -92.333 16.667 -105 44c-12.667 -24 -49.334 -36 -110.001 -36c-55.333 -4.66699 -97.333 10.666 -126 45.999c-20.667 26.667 -31 58 -31 94v117h128v-95
c6 -40 20.333 -59 43 -57c16 0 24 31.667 24 95v57h132v-57c6 -63.333 22.333 -95 49 -95c19.333 0 26 20 20 60l4 92h127zM656.001 2119c-40.667 0 -61 -24 -61 -72c0 -49.333 20.333 -74 61 -74c41.333 0 62 24.667 62 74c0 48 -20.667 72 -62 72zM414.001 2119
c-40.667 0 -61 -24 -61 -72c0 -49.333 20.333 -74 61 -74s61 24.667 61 74c0 48 -20.333 72 -61 72zM538.001 1916c3.33301 8 3.33301 11 0 9c-4 -4 -7 -7.33301 -9 -10l-4 -9l-230 -164l-42 83l86 61c-11.333 2 -30 16 -56 42c-32.667 32.667 -49 71.667 -49 117
c0 110 59 165 177 165c56.667 0 97 -10 121 -30c25.333 20 66.333 30 123 30c119.333 0 179 -55 179 -165c0 -45.333 -16.667 -84.333 -50 -117l-247 -186l-41 83l84 61c-10 2 -27 15 -51 39c-1.33301 1.33301 1.66699 -1.66699 9 -9z" />
    <glyph glyph-name="uniFC5F" unicode="&#x651;&#x64d;" arabic-form="isolated" 
d="M717 2195v-116.999c0 -36.667 -11 -68.334 -33 -95.001c-28.667 -35.333 -70.334 -53 -125.001 -53c-55.333 3.33301 -89.333 17.666 -102 42.999c-12.667 -23.333 -50 -35 -112 -35c-54 -4.66699 -95.333 11 -124 47c-22 27.333 -33 58.333 -33 93v117h129v-93
c6 -41.333 20.333 -60.666 43 -57.999c16.667 0 25 31.667 25 95v56h131v-56c6.66699 -63.333 23.334 -95 50.001 -95c19.333 0 26 20 20 60l2 91h129zM680 1732l3 -117l-481 4v113h478zM678 1895v-116l-471 -3l-9 119h480z" />
    <glyph glyph-name="uniFC60" unicode="&#x651;&#x64e;" arabic-form="isolated" 
d="M702 1978v-113.999c0 -38.667 -11 -71.334 -33 -98.001c-28.667 -35.333 -70.334 -53 -125.001 -53c-55.333 3.33301 -89.333 18.333 -102 45c-12.667 -24 -50 -36 -112 -36c-54 -4 -95.333 11.333 -124 46c-22 28.667 -33 60.667 -33 96v114h129v-93
c6 -40.667 20.333 -60 43 -58c16.667 0.666992 25 32 25 94v57h131v-57c6.66699 -62.667 23.334 -94 50.001 -94c19.333 0 26 20 20 60l2 91h129zM680 2136l3 -102h-484l3 102h478z" />
    <glyph glyph-name="uniFC61" unicode="&#x651;&#x64f;" arabic-form="isolated" 
d="M425 2080c0 -50 20.667 -75 62 -75c40 0 60 25 60 75c0 48.667 -20 73 -60 73c-41.333 0 -62 -24.333 -62 -73zM604 1949l-5 -10l-231 -163l-45 82l88 61c-10.667 1.33301 -28 14 -52 38c-35.333 36 -53 76.333 -53 121c0 110.667 59.667 166 179 166
c118.667 0 178 -55.333 178 -166c0 -44.667 -15.667 -83 -47 -115zM728 1742v-115.999c0 -38 -11 -70.667 -33 -98c-29.333 -33.333 -70.333 -50 -123 -50c-56.667 1.33301 -91.334 15.333 -104.001 42c-12.667 -23.333 -50 -35 -112 -35c-54 -4 -95.333 11.667 -124 47
c-22 27.333 -33 58.666 -33 93.999v116h129v-93c6 -41.333 20.333 -61.333 43 -60c16.667 2 25 34 25 96v57h131v-58c6.66699 -63.333 23.334 -95 50.001 -95c19.333 0 26 20.667 20 62l2 91h129z" />
    <glyph glyph-name="uniFC62" unicode="&#x651;&#x650;" horiz-adv-x="2" arabic-form="isolated" 
d="M726 2149v-117.001c0 -38 -11 -70.333 -33 -97c-28.667 -35.333 -70.334 -53 -125.001 -53c-55.333 3.33301 -89.333 18.333 -102 45c-12.667 -23.333 -50 -35 -112 -35c-54 -4.66699 -95.333 11 -124 47c-22 27.333 -33 58.333 -33 93v117h129v-95
c6 -40.667 20.333 -60 43 -58c16.667 0.666992 25 32.334 25 95.001v58h131v-58c6.66699 -63.333 23.334 -95 50.001 -95c19.333 0 26 20.333 20 61l2 92h129zM706 1847l3 -102h-483l4 102h476z" />
    <glyph glyph-name="uniFD3F" unicode="&#x652;&#x64b;" horiz-adv-x="964" 
d="M289 226c46 31.333 88.667 101.335 128 210.002c-66.667 0 -143.334 -7.66699 -230.001 -23c76.667 57.333 140.667 112.666 192 165.999c16 17.333 30.667 35.333 44 54c-13.333 9.33301 -24.666 20.666 -33.999 33.999c-21.333 -14.667 -40 -29.334 -56 -44.001
c-52.667 -50 -108 -114 -166 -192c15.333 88.667 23 172.667 23 252v157c0 80.667 -7.66699 164.667 -23 252c59.333 -79.333 114.666 -143.333 165.999 -192c13.333 -12 32 -26.667 56 -44c10 13.333 21.333 25 34 35c-13.333 18 -28 36.333 -44 55
c-51.333 52.667 -115.333 107.667 -192 165c90 -16 166.667 -24 230 -24c-39.333 108.667 -82 179 -128 211c-36.667 26 -100.334 39 -191.001 39c40 46.667 65.667 85.667 77 117c6.66699 18.667 9.66699 45.667 9 81c-10 97.333 -20 185 -30 263l259 -321
c92 -112.667 156 -242.667 192 -390c70 0 151 8 243 24c-76 -55.333 -140 -110.333 -192 -165c-16.667 -16.667 -31.667 -35 -45 -55c12.667 -10 24.334 -21.667 35.001 -35c21.333 16 39.333 30.667 54 44c52.667 51.333 108 115.333 166 192
c-16 -90.667 -24 -174.667 -24 -252v-157c0 -76 8 -160 24 -252c-58 78 -113.333 142 -166 192c-14.667 13.333 -32.667 28 -54 44c-8 -11.333 -19.333 -22.666 -34 -33.999c12 -18 26.667 -36 44 -54c52 -54.667 116 -110 192 -166c-88.667 15.333 -169.667 23 -243 23
c-36 -146 -100 -276 -192 -390l-259 -317c17.333 154 27.333 241.333 30 262c0.666992 34.667 -2.33301 61.334 -9 80.001c-11.333 31.333 -37 69.666 -77 114.999c90.667 0 154.334 13.333 191.001 40zM435 680.002c22.667 -22.667 49.667 -34 81 -34
c32.667 0 60.5 11.333 83.5 34s34.5 50 34.5 82c0 31.333 -11.667 58.5 -35 81.5s-51 34.5 -83 34.5c-31.333 0 -58.333 -11.5 -81 -34.5s-34 -50.167 -34 -81.5c0 -32 11.333 -59.333 34 -82z" />
    <glyph glyph-name="uniFDF2" unicode="&#xfedf;&#xfee0;&#xfeea;" horiz-adv-x="2769" arabic-form="isolated" 
d="M601 226c26.667 0 43.667 15.333 51 46v470c0 20 -14.333 34.333 -43 43h-15c-26.667 0 -43 -17.667 -49 -53v-454c8 -34.667 26.667 -52 56 -52zM1331 232c54 28.667 79.998 80.334 77.998 155.001v1161c0 24 2 40.333 6 49c18.667 40.667 48.334 61 89.001 61h309
l24 -3c47.333 -14 71 -46.333 71 -97v-1288c0.666992 -14 -0.666016 -27 -3.99902 -39l206 -1c56 28 83.333 80.333 82 157v1161c0 24 2 40.333 6 49c18 40.667 47.333 61 88 61h310l24 -3c46.667 -14 70 -46.333 70 -97v-1441c1.33301 -71.333 -36.667 -110 -114 -116
h-2400c-66 18 -99 51.333 -99 100v780c0 17.333 3 29.666 9 36.999c18.667 34 43 51 73 51h493l-2 177c-2 50.667 25.333 76 82 76h316c50 0 75 -23 75 -69v-921h208z" />
    <glyph glyph-name="uniFEF5" unicode="&#xfedf;&#xfe82;" horiz-adv-x="1404" arabic-form="isolated" 
d="M832 2026h4.00195c0 -56.667 -22.667 -128 -68 -214c-48.667 -47.333 -86.334 -71 -113.001 -71h-58c-38.667 0 -121.334 12.667 -248.001 38l-83 8c-118.667 0 -205.334 -42.667 -260.001 -128h-6c8 152.667 54 245.667 138 279l80 11
c60.667 -6 153.334 -20 278.001 -42l76 -3h40c41.333 2 93.333 21.333 156 58zM909.002 1658l299.999 0.000976562c44.667 0 75.334 -19.333 92.001 -58l5 -19v-1501c0 -42.667 -29.333 -69.334 -88 -80.001h-988c-49.333 0 -80 25.667 -92 77v285c0 34.667 26.667 61 80 79
h312c44 0 75.333 -17.333 94 -52c6 -16 9 -30.333 9 -43v-227c0 -28 23.667 -42 71 -42h42c43.333 0 65 15.333 65 46v1443c0 55.333 32.667 86 98 92zM220.001 1658h331.001c54.667 -14 82 -41.667 82 -83v-993c0 -52 -32.333 -81.667 -97 -89h-297
c-50 0 -83.667 22.667 -101 68v1024c17.333 48.667 44.666 73 81.999 73z" />
    <glyph glyph-name="uniFEF6" unicode="&#xfee0;&#xfe82;" horiz-adv-x="1437" arabic-form="final" 
d="M771 2025h4.00098c0 -56.667 -22.667 -128 -68 -214c-48.667 -46.667 -86.334 -70 -113.001 -70h-58c-38.667 0 -121.334 12.333 -248.001 37l-83 9c-118.667 0 -205 -43 -259 -129h-7c8 152.667 54 245.667 138 279l80 12c60.667 -6 153.334 -20.333 278.001 -43l76 -3
h40c41.333 2 93.333 21.333 156 58zM182.001 1658h331.001c54.667 -14 82 -41.667 82 -83v-993c0 -52 -32.667 -81.667 -98 -89h-296c-50 0 -83.667 22.667 -101 68v1024c17.333 48.667 44.666 73 81.999 73zM191.002 0c-68.667 2.66699 -99.001 79.333 -91.001 230v132
c0 34.667 26.667 61 80 79h317c65.333 -7.33301 98 -38 98 -92v-73c0 -30.667 21.667 -46 65 -46h48c43.333 0 65 13.333 65 40v1288c0 50.667 23.333 83 70 97l25 3h309c40.667 0 70.334 -20.333 89.001 -61c4 -8.66699 6 -25 6 -49v-1316h249v-232h-1330z" />
    <glyph glyph-name="uniFEF7" unicode="&#xfedf;&#xfe84;" horiz-adv-x="1322" arabic-form="isolated" 
d="M494 2042h16.999c46.667 0 71.334 -5 74.001 -15v-220l-6 -6h-95c-36.667 0 -55 -21.667 -55 -65c0 -40.667 17.333 -61 52 -61h110l6 -6v-180l-6 -7h-508l-6 7v207l6 7h138v79c0 107.333 62.333 189 187 245c31.333 10 60 15 86 15zM847.999 1658l300 0.000976562
c44.667 0 75.334 -19.333 92.001 -58l6 -19v-1501c0 -42.667 -29.667 -69.334 -89 -80.001h-988c-48.667 0 -79.334 25.667 -92.001 77v285c0 34.667 26.667 61 80 79h312c44 0 75.333 -17.333 94 -52c6.66699 -16 10 -30.333 10 -43v-227c0 -28 23.333 -42 70 -42h43
c42.667 0 64 15.333 64 46v1443c0 55.333 32.667 86 98 92zM158.999 1437h331.001c55.333 -14 83 -41.667 83 -83v-772c0 -52 -32.667 -81.667 -98 -89h-297c-50 0 -83.667 22.667 -101 68v803c17.333 48.667 44.666 73 81.999 73z" />
    <glyph glyph-name="uniFEF8" unicode="&#xfee0;&#xfe84;" horiz-adv-x="1457" arabic-form="final" 
d="M494 2051h16.999c46.667 0 71.334 -5.33301 74.001 -16v-220l-6 -6h-95c-36.667 0 -55 -21.333 -55 -64c0 -41.333 17.333 -62 52 -62h110l6 -6v-180l-6 -7h-508l-6 7v208l6 6h138v79c0 107.333 62.333 189 187 245c31.333 10.667 60 16 86 16zM181.999 1445h331.001
c55.333 -14 83 -41.333 83 -82v-781c0 -52 -32.667 -81.667 -98 -89h-297c-50 0 -83.667 22.667 -101 68v811c17.333 48.667 44.666 73 81.999 73zM192 0c-69.333 2.66699 -100.001 79.333 -92.001 230v132c0 34.667 26.667 61 80 79h318c65.333 -7.33301 98 -38 98 -92v-73
c0 -30.667 21.333 -46 64 -46h49c42.667 0 64 13.333 64 40v1288c0 50.667 23.667 83 71 97l24 3h309c40.667 0 70.334 -20.333 89.001 -61c4 -8.66699 6 -25 6 -49v-1316h249v-232h-1329z" />
    <glyph glyph-name="uniFEF9" unicode="&#xfedf;&#xfe88;" horiz-adv-x="1322" arabic-form="isolated" 
d="M494 -50h16.999c46.667 0 71.334 -5 74.001 -15v-221l-6 -6h-95c-36.667 0 -55 -21.333 -55 -64c0 -40.667 17.333 -61 52 -61h110l6 -6v-181l-6 -6h-508l-6 6v208l6 7h138v79c0 107.333 62.333 189 187 245c31.333 10 60 15 86 15zM847.999 1658l300 0.000976562
c44.667 0 75.334 -19.333 92.001 -58l6 -19v-1501c0 -42.667 -29.667 -69.334 -89 -80.001h-988c-48.667 0 -79.334 25.667 -92.001 77v285c0 34.667 26.667 61 80 79h312c44 0 75.333 -17.333 94 -52c6.66699 -16 10 -30.333 10 -43v-227c0 -28 23.333 -42 70 -42h43
c42.667 0 64 15.333 64 46v1443c0 55.333 32.667 86 98 92zM158.999 1658h331.001c55.333 -14 83 -41.667 83 -83v-993c0 -52 -32.667 -81.667 -98 -89h-297c-50 0 -83.667 22.667 -101 68v1024c17.333 48.667 44.666 73 81.999 73z" />
    <glyph glyph-name="uniFEFA" unicode="&#xfee0;&#xfe88;" horiz-adv-x="1438" arabic-form="final" 
d="M494 -50h16.999c46.667 0 71.334 -5 74.001 -15v-221l-6 -6h-95c-36.667 0 -55 -21.333 -55 -64c0 -40.667 17.333 -61 52 -61h110l6 -6v-181l-6 -6h-508l-6 6v208l6 7h138v79c0 107.333 62.333 189 187 245c31.333 10 60 15 86 15zM181.999 1658h331.001
c55.333 -14 83 -41.667 83 -83v-993c0 -52 -32.667 -81.667 -98 -89h-297c-50 0 -83.667 22.667 -101 68v1024c17.333 48.667 44.666 73 81.999 73zM192 0c-69.333 2.66699 -100.001 79.333 -92.001 230v132c0 34.667 26.667 61 80 79h318c65.333 -7.33301 98 -38 98 -92
v-73c0 -30.667 21.333 -46 64 -46h49c42.667 0 64 13.333 64 40v1288c0 50.667 23.667 83 71 97l24 3h309c40.667 0 70.334 -20.333 89.001 -61c4 -8.66699 6 -25 6 -49v-1316h249v-232h-1329z" />
    <glyph glyph-name="uniFEFB" unicode="&#xfedf;&#xfe8e;" horiz-adv-x="1322" arabic-form="isolated" 
d="M848 1658l300 0.000976562c44.667 0 75.334 -19.333 92.001 -58l6 -19v-1501c0 -42.667 -29.667 -69.334 -89 -80.001h-988c-48.667 0 -79.334 25.667 -92.001 77v285c0 34.667 26.667 61 80 79h312c44 0 75.333 -17.333 94 -52c6.66699 -16 10 -30.333 10 -43v-227
c0 -28 23.333 -42 70 -42h43c42.667 0 64 15.333 64 46v1443c0 55.333 32.667 86 98 92zM159 1658h331.001c55.333 -14 83 -41.667 83 -83v-993c0 -52 -32.667 -81.667 -98 -89h-297c-50 0 -83.667 22.667 -101 68v1024c17.333 48.667 44.666 73 81.999 73z" />
    <glyph glyph-name="uniFEFC" unicode="&#xfee0;&#xfe8e;" horiz-adv-x="1407" arabic-form="final" 
d="M160 1658h330c55.333 -14 83 -41.667 83 -83v-993c0 -52 -32.667 -81.667 -98 -89h-297c-50 0 -83.667 22.667 -101 68v1024c17.333 48.667 45 73 83 73zM169 0c-69.333 2.66699 -100 79.333 -92 230v132c0 34.667 26.667 61 80 79h318c65.333 -7.33301 98 -38 98 -92
v-73c0 -30.667 21.333 -46 64 -46h49c42.667 0 64 13.333 64 40v1288c0 50.667 23.667 83 71 97l24 3h310c40.667 0 70 -20.333 88 -61c4 -8.66699 6 -25 6 -49v-1316h212v-232h-1292z" />
    <glyph glyph-name="afii57410" unicode="&#x622;" horiz-adv-x="931" arabic-form="isolated" 
d="M304 1657h327c28.667 0 53.334 -16.333 74.001 -49c6.66699 -7.33301 10 -19.666 10 -36.999v-1485c0 -44.667 -26.667 -73.334 -80 -86.001h-322c-48.667 0 -79 25.667 -91 77v1506c17.333 49.333 44.666 74 81.999 74zM870 2025h4.00195
c0 -56.667 -22.667 -128 -68 -214c-48.667 -46.667 -86.334 -70 -113.001 -70h-58c-38.667 0 -121.334 12.333 -248.001 37l-83 9c-118.667 0 -205.334 -43 -260.001 -129h-6c8 152.667 54 245.667 138 279l80 12c60.667 -6 153.334 -20.333 278.001 -43l76 -3h40
c41.333 2 93.333 21.333 156 58z" />
    <glyph glyph-name="afii57411" unicode="&#x623;" horiz-adv-x="674" arabic-form="isolated" 
d="M167 1660h327c28.667 0 53.334 -16.333 74.001 -49c6.66699 -7.33301 10 -19.666 10 -36.999v-1488c0 -44.667 -26.667 -73.334 -80 -86.001h-322c-48.667 0 -79 25.667 -91 77v1509c17.333 49.333 44.666 74 81.999 74zM494 2338h16.999c46.667 0 71.334 -5 74.001 -15
v-221l-6 -6h-95c-36.667 0 -55 -21.333 -55 -64c0 -40.667 17.333 -61 52 -61h110l6 -6v-180l-6 -6h-508l-6 6v208l6 6h138v79c0 106.667 62.333 188.334 187 245c31.333 10 60 15 86 15z" />
    <glyph glyph-name="afii57412" unicode="&#x624;" horiz-adv-x="1200" arabic-form="isolated" 
d="M761 1632h17.999c46.667 0 71.334 -5 74.001 -15v-220l-7 -7h-94c-36.667 0 -55 -21.333 -55 -64c0 -40.667 17.333 -61 52 -61h110l6 -6v-181l-6 -6h-508l-6 6v208l6 6h137v80c0 107.333 62.333 189 187 245c32 10 60.667 15 86 15zM544.999 739v-462
c6 -34.667 22.333 -52 49 -52h15c28.667 8 43 22 43 42v478c-7.33301 30.667 -24.333 46 -51 46c-29.333 0 -48 -17.333 -56 -52zM651.999 -123v124.003h-493c-30 0 -54.333 17.333 -73 52c-6 7.33301 -9 19.666 -9 36.999v780c0 49.333 25.667 81 77 95l30 4h857
c54.667 -14.667 82 -41.334 82 -80.001v-1165c0 -40.667 -27.333 -67.334 -82 -80.001h-958l-1 1h-5v232h575z" />
    <glyph glyph-name="afii57413" unicode="&#x625;" horiz-adv-x="674" arabic-form="isolated" 
d="M175 1658l327 0.000976562c28.667 0 53.334 -16.333 74.001 -49c6 -7.33301 9 -19.333 9 -36v-1487c0 -44.667 -26.667 -73.334 -80 -86.001h-321c-48.667 0 -79.334 25.667 -92.001 77v1508c18 48.667 45.667 73 83 73zM494 -81.999h16.999
c46.667 0 71.334 -5 74.001 -15v-220l-6 -6h-95c-36.667 0 -55 -21.667 -55 -65c0 -40.667 17.333 -61 52 -61h110l6 -6v-180l-6 -7h-508l-6 7v207l6 7h138v79c0 107.333 62.333 189 187 245c31.333 10 60 15 86 15z" />
    <glyph glyph-name="afii57414" unicode="&#x626;" horiz-adv-x="2607" arabic-form="isolated" 
d="M513 1632h19c46 0 70.333 -5 73 -15v-220l-6 -7h-95c-37.333 0 -56 -21.333 -56 -64c0 -40.667 17.667 -61 53 -61h110l6 -6v-181l-6 -6h-508l-6 6v208l6 6h138v80c0 107.333 62 189 186 245c32 10 60.667 15 86 15zM159 968l331 -0.00195312c28 0 51.667 -15.333 71 -46
c8 -14 12 -24.333 12 -31v-588c0 -38 47 -63.667 141 -77l119 -8h91c160 8.66699 246 31 258 67v572c0 56 22.333 91.667 67 107l18 4h1166c46.667 0 79.334 -24.667 98 -74v-821c0 -25.333 -18.333 -47.666 -55 -66.999l-24 -6h-343c-28.667 0 -53.334 22.667 -74.001 68
l-3 45v634c-1.33301 20 -21.666 43.333 -60.999 70c-41.333 20.667 -77 31 -107 31h-31c-58 0 -109 -32.667 -153 -98v-677c0 -25.333 -18 -47.666 -54 -66.999l-25 -6h-1451c-28 0 -52.333 22.667 -73 68v810c0 40 21.667 68.667 65 86z" />
    <glyph glyph-name="afii57415" unicode="&#x627;" horiz-adv-x="647" arabic-form="isolated" 
d="M159 1658l328.002 0.000976562c28 0 52.667 -16.333 74 -49c6 -7.33301 9 -19.333 9 -36v-1487c0 -44.667 -26.667 -73.334 -80 -86.001h-321c-48.667 0 -79.334 25.667 -92.001 77v1508c17.333 48.667 44.666 73 81.999 73z" />
    <glyph glyph-name="afii57416" unicode="&#x628;" horiz-adv-x="2177" arabic-form="isolated" 
d="M165 0c-42 0 -71.333 22.668 -88 68.001v823c0 37.333 30.667 63.666 92 78.999h287c62.667 0 101.667 -24.333 117 -73v-513c0 -101.333 50 -152 150 -152h728c100 0 150 50.667 150 152v467c0 44 9 73.667 27 89c19.333 20 50 30 92 30h264
c62 0 100.667 -24.333 116 -73v-824c0 -26 -20.333 -49 -61 -69l-28 -4h-1846zM1002 -107.999l39.999 0.000976562c52 0 107 -27.333 165 -82c40.667 -52.667 61 -108 61 -166c0 -98 -51 -173.333 -153 -226c-25.333 -10.667 -53.666 -16 -84.999 -16h-9
c-120 0 -199.667 63.333 -239 190l-6 55c0 73.333 31.333 137.666 94 192.999c49.333 34.667 93.333 52 132 52z" />
    <glyph glyph-name="afii57417" unicode="&#x629;" horiz-adv-x="1200" arabic-form="isolated" 
d="M545 739v-501c6 -34 22.333 -51 49 -51h15c28.667 7.33301 43 21.333 43 42v516c-7.33301 30.667 -24.333 46 -51 46c-29.333 0 -48 -17.333 -56 -52zM139 5c-20.667 5.33301 -38.333 21.335 -53 48.002c-6 7.33301 -9 19.666 -9 36.999v780c0 49.333 25.667 81 77 95
l30 4h857c54.667 -14.667 82 -41.334 82 -80.001v-776c0 -72 -37.333 -110.667 -112 -116zM494.001 1698l16.999 -0.000976562c46.667 0 71.334 -5 74.001 -15v-221l-6 -6h-95c-36.667 0 -55 -21.333 -55 -64c0 -40.667 17.333 -61 52 -61h110l6 -6v-181l-6 -6h-508l-6 6
v208l6 7h138v79c0 106.667 62.333 188.334 187 245.001c31.333 10 60 15 86 15z" />
    <glyph glyph-name="afii57418" unicode="&#x62a;" horiz-adv-x="2177" arabic-form="isolated" 
d="M165 0c-42 0 -71.333 22.668 -88 68.001v823c0 37.333 30.667 63.666 92 78.999h287c62.667 0 101.667 -24.333 117 -73v-513c0 -101.333 50 -152 150 -152h728c100 0 150 50.667 150 152v467c0 44 9 73.667 27 89c19.333 20 50 30 92 30h264
c62 0 100.667 -24.333 116 -73v-824c0 -26 -20.333 -49 -61 -69l-28 -4h-1846zM844 1362c82 0 143.334 -44.333 184.001 -133l10 -54v-23c0 -58 -31 -110.333 -93 -157c-26.667 -17.333 -61.334 -26 -104.001 -26c-78 0 -135.333 33.333 -172 100c-16 26 -24 51.333 -24 76
v38c0 41.333 20.333 83 61 125c37.333 36 83.333 54 138 54zM1311 1362c74.667 0 134 -37.666 178 -112.999c10.667 -24.667 16 -53.667 16 -87c0 -76.667 -36.667 -135.334 -110 -176.001c-20 -11.333 -48.667 -17 -86 -17c-75.333 0 -132 32 -170 96
c-18 27.333 -27 61 -27 101c0 74 35.333 132 106 174c27.333 14.667 58.333 22 93 22z" />
    <glyph glyph-name="afii57419" unicode="&#x62b;" horiz-adv-x="2177" arabic-form="isolated" 
d="M165 0c-42 0 -71.333 22.668 -88 68.001v823c0 37.333 30.667 63.666 92 78.999h287c62.667 0 101.667 -24.333 117 -73v-513c0 -101.333 50 -152 150 -152h728c100 0 150 50.667 150 152v467c0 44 9 73.667 27 89c19.333 20 50 30 92 30h264
c62 0 100.667 -24.333 116 -73v-824c0 -26 -20.333 -49 -61 -69l-28 -4h-1846zM844 1362c82 0 143.334 -44.333 184.001 -133l10 -54v-23c0 -58 -31 -110.333 -93 -157c-26.667 -17.333 -61.334 -26 -104.001 -26c-78 0 -135.333 33.333 -172 100c-16 26 -24 51.333 -24 76
v38c0 41.333 20.333 83 61 125c37.333 36 83.333 54 138 54zM1311 1362c74.667 0 134 -37.666 178 -112.999c10.667 -24.667 16 -53.667 16 -87c0 -76.667 -36.667 -135.334 -110 -176.001c-20 -11.333 -48.667 -17 -86 -17c-75.333 0 -132 32 -170 96
c-18 27.333 -27 61 -27 101c0 74 35.333 132 106 174c27.333 14.667 58.333 22 93 22zM1077 1722c82 0 143.333 -44.666 184 -133.999l10 -53v-23c0 -58.667 -31 -111.334 -93 -158.001c-26.667 -17.333 -61 -26 -103 -26c-78 0 -135.667 33.333 -173 100
c-16 26 -24 51.667 -24 77v37c0 41.333 20.333 83 61 125c38 36.667 84 55 138 55z" />
    <glyph glyph-name="afii57420" unicode="&#x62c;" horiz-adv-x="1427" arabic-form="isolated" 
d="M781 232v238.999h-499c-46 4.66699 -94 31.334 -144 80.001c-40.667 50.667 -61 100.667 -61 150v257l6 6h1023c117.333 0 176 -55 176 -165v-567h70v-232h-581c-134 0 -201 -65 -201 -195v-250c0 -34 15.333 -56.667 46 -68c8 -4 19 -6 33 -6h695l6 -6v-71l-6 -6h-1206
c-40.667 4 -61 18.667 -61 44v637v-84c0 2 0.333008 4.33301 1 7c0 153.333 68.333 230 205 230h498zM964 -49.001h34.001c45.333 0 93.333 -24 144 -72c36 -45.333 54 -93 54 -143c0 -84.667 -44.667 -150 -134 -196c-22 -8.66699 -47 -13 -75 -13h-7
c-104.667 0 -174.334 54.667 -209.001 164l-5 48c0 63.333 27.667 119 83 167c42.667 30 81 45 115 45z" />
    <glyph glyph-name="afii57421" unicode="&#x62d;" horiz-adv-x="1459" arabic-form="isolated" 
d="M781 232v238.999h-499c-46 4.66699 -94 31.334 -144 80.001c-40.667 50.667 -61 100.667 -61 150v257l6 6h1023c117.333 0 176 -55 176 -165v-567h108v-232h-619c-134 0 -201 -65 -201 -195v-250c0 -34 15.333 -56.667 46 -68c8 -4 19 -6 33 -6h695l6 -6v-71l-6 -6h-1206
c-40.667 4 -61 18.667 -61 44v637v-84c0 2 0.333008 4.33301 1 7c0 153.333 68.333 230 205 230h498z" />
    <glyph glyph-name="afii57422" unicode="&#x62e;" horiz-adv-x="1467" arabic-form="isolated" 
d="M781 232v238.999h-499c-46 4.66699 -94 31.334 -144 80.001c-40.667 50.667 -61 100.667 -61 150v257l6 6h1023c117.333 0 176 -55 176 -165v-567h116v-232h-627c-134 0 -201 -65 -201 -195v-250c0 -34 15.333 -56.667 46 -68c8 -4 19 -6 33 -6h695l6 -6v-71l-6 -6h-1206
c-40.667 4 -61 18.667 -61 44v637v-84c0 2 0.333008 4.33301 1 7c0 153.333 68.333 230 205 230h498zM644 1558l40 0.000976562c52 0 107 -27.667 165 -83c40.667 -52 61 -107 61 -165c0 -98 -51 -173.667 -153 -227c-25.333 -10 -54 -15 -86 -15h-8
c-120 0 -199.667 63.333 -239 190l-6 55c0 73.333 31.333 137.666 94 192.999c49.333 34.667 93.333 52 132 52z" />
    <glyph glyph-name="afii57423" unicode="&#x62f;" horiz-adv-x="1366" arabic-form="isolated" 
d="M787 232v237l-220 -4h-398c-48 0 -78.667 25.667 -92 77v334c0 38.667 24.333 67 73 85h967c76 0 128.333 -26.333 157 -79c10 -27.333 15 -54 15 -80v-802h-1211v5l-1 1v65l1 1v160h709z" />
    <glyph glyph-name="afii57424" unicode="&#x630;" horiz-adv-x="1366" arabic-form="isolated" 
d="M662 1666l39 0.000976562c52 0 107.333 -27.333 166 -82c40.667 -52.667 61 -107.667 61 -165c0 -98 -51 -173.667 -153 -227c-25.333 -10 -54 -15 -86 -15h-9c-119.333 0 -199 63 -239 189l-6 56c0 73.333 31.667 137.666 95 192.999c48.667 34 92.667 51 132 51z
M787 232.001v237l-220 -4h-398c-48 0 -78.667 25.667 -92 77v334c0 38.667 24.333 67 73 85h967c76 0 128.333 -26.333 157 -79c10 -27.333 15 -54 15 -80v-802h-1211v5l-1 1v65l1 1v160h709z" />
    <glyph glyph-name="afii57425" unicode="&#x631;" horiz-adv-x="1001" arabic-form="isolated" 
d="M452 0v840.002c-16 96 28 139 132 129h258c54.667 -14.667 82 -41.334 82 -80.001v-1165c0 -40.667 -27.333 -67.334 -82 -80.001h-759l-1 1h-5v232h264c73.333 0 110.333 41 111 123z" />
    <glyph glyph-name="afii57426" unicode="&#x632;" horiz-adv-x="1200" arabic-form="isolated" 
d="M661 1529l39.999 0.000976562c51.333 0 106.333 -27.667 165 -83c40.667 -52.667 61 -107.667 61 -165c0 -98 -51 -173.667 -153 -227c-25.333 -10 -54 -15 -86 -15h-9c-119.333 0 -198.666 63.333 -237.999 190l-7 55c0 73.333 31.667 137.666 95 192.999
c48.667 34.667 92.667 52 132 52zM451.999 0.000976562v840.002c-16 96 28 139 132 129h258c54.667 -14.667 82 -41.334 82 -80.001v-1165c0 -40.667 -27.333 -67.334 -82 -80.001h-759l-1 1h-5v232h264c73.333 0 110.333 41 111 123z" />
    <glyph glyph-name="afii57427" unicode="&#x633;" horiz-adv-x="3045" arabic-form="isolated" 
d="M1660 232h155v654c0 36 24.333 63.667 73 83h340c34 0 61.667 -22.667 83 -68l3 -48v-621h156v627c0 56 22.333 91.667 67 107l19 3h330c27.333 0 51 -15.333 71 -46c8 -13.333 12 -23.666 12 -30.999v-817c0 -24 -17.333 -46.333 -52 -67l-28 -6h-175v-2h-1053v-285
c0 -31.333 -24.667 -56 -74 -74h-1418c-46 0 -76.667 22.667 -92 68v1180c0 29.333 22.333 54.666 67 75.999l34 4h297c65.333 -10 98 -40.667 98 -92v-1005h592l-2 1017c0 36 24.333 63.333 73 82h340c34 0 61.667 -22.333 83 -67z" />
    <glyph glyph-name="afii57428" unicode="&#x634;" horiz-adv-x="3045" arabic-form="isolated" 
d="M2183 2047h40c52 0 107 -27.667 165 -83c40.667 -52 61 -107 61 -165c0 -98 -51 -173.333 -153 -226c-25.333 -10 -53.666 -15 -85 -15h-10c-118.667 0 -198 63 -238 189l-7 55c0 73.333 32 137.333 96 192c48.667 35.333 92.334 53 131 53zM1929 1551
c102 0 178.667 -55.002 230 -165.002l12 -67v-28c0 -73.333 -38.667 -138.666 -116 -195.999c-32.667 -22.667 -75.667 -34 -129 -34c-97.333 0 -168.666 42 -213.999 126c-20.667 32.667 -31 64.334 -31 95.001v46c0 51.333 25.333 103.333 76 156
c47.333 44.667 104.666 67 171.999 67zM2483 1551c92.667 0 166.334 -46.6689 221 -140.002c14 -30.667 21 -66.667 21 -108c0 -95.333 -46 -168.666 -138 -219.999c-24.667 -14.667 -60.334 -22 -107 -22c-93.333 0 -163.666 40 -211 120c-22.667 35.333 -34 77 -34 125
c0 92.667 44 165.334 132 218.001c34.667 18 73.334 27 116 27zM1660 231.996h155v654c0 36 24.333 63.667 73 83h340c34 0 61.667 -22.667 83 -68l3 -48v-621h156v627c0 56 22.333 91.667 67 107l19 3h330c27.333 0 51 -15.333 71 -46c8 -13.333 12 -23.666 12 -30.999
v-817c0 -24 -17.333 -46.333 -52 -67l-28 -6h-175v-2h-1053v-285c0 -31.333 -24.667 -56 -74 -74h-1418c-46 0 -76.667 22.667 -92 68v1180c0 29.333 22.333 54.666 67 75.999l34 4h297c65.333 -10 98 -40.667 98 -92v-1005h592l-2 1017c0 36 24.333 63.333 73 82h340
c34 0 61.667 -22.333 83 -67z" />
    <glyph glyph-name="afii57429" unicode="&#x635;" horiz-adv-x="3514" arabic-form="isolated" 
d="M2293 691v-472h649v459c0 30 -7.33301 48.333 -22 55l-36 6h-542c-32.667 0 -49 -16 -49 -48zM1660 232l135 0.000976562l2 652c0 37.333 24.667 65.333 74 84h1484c26.667 0 49.667 -15.333 69 -46c8.66699 -14 13 -24.333 13 -31v-818c0 -23.333 -16 -44 -48 -62v-11
h-1097v-252c0 -64 -34.667 -96 -104 -96h-296c-65.333 7.33301 -98 38 -98 92v256h-133v-285c0 -31.333 -24.667 -56 -74 -74h-1418c-46 0 -76.667 22.667 -92 68v1180c0 29.333 22.333 54.666 67 75.999l34 4h297c65.333 -10 98 -40.667 98 -92v-1005h592l-2 1017
c0 36 24.333 63.333 73 82h340c34 0 61.667 -22.333 83 -67z" />
    <glyph glyph-name="afii57430" unicode="&#x636;" horiz-adv-x="3514" arabic-form="isolated" 
d="M2581 1566h40c51.333 0 106.333 -27.333 165 -82c40.667 -52.667 61 -107.667 61 -165c0 -98 -51 -173.667 -153 -227c-25.333 -10.667 -54 -16 -86 -16h-9c-119.333 0 -198.666 63.667 -238 191l-7 54c0 74 31.667 138.333 95 193c48.667 34.667 92.667 52 132 52z
M2293 691v-472h649v459c0 30 -7.33301 48.333 -22 55l-36 6h-542c-32.667 0 -49 -16 -49 -48zM1660 232l135 0.000976562l2 652c0 37.333 24.667 65.333 74 84h1484c26.667 0 49.667 -15.333 69 -46c8.66699 -14 13 -24.333 13 -31v-818c0 -23.333 -16 -44 -48 -62v-11
h-1097v-252c0 -64 -34.667 -96 -104 -96h-296c-65.333 7.33301 -98 38 -98 92v256h-133v-285c0 -31.333 -24.667 -56 -74 -74h-1418c-46 0 -76.667 22.667 -92 68v1180c0 29.333 22.333 54.666 67 75.999l34 4h297c65.333 -10 98 -40.667 98 -92v-1005h592l-2 1017
c0 36 24.333 63.333 73 82h340c34 0 61.667 -22.333 83 -67z" />
    <glyph glyph-name="afii57431" unicode="&#x637;" horiz-adv-x="2106" arabic-form="isolated" 
d="M652 1705c55.333 -14.667 83 -42.332 83 -82.999v-478c0 -42.667 -23.667 -72 -71 -88h-348c-43.333 11.333 -65 25.666 -65 42.999c-6.66699 0 -11.667 18.333 -15 55v449c0 53.333 25.333 87.333 76 102h340zM735 693.002v-447l-3 -12h802v436
c0 35.333 -17.667 53 -53 53h-700c-30.667 -3.33301 -46 -13.333 -46 -30zM236 232.002l-0.000976562 644c9.33301 61.333 38 92 86 92l21 2h1579c54.667 0 90.334 -24.333 107.001 -73v-824c0 -26 -20.333 -49 -61 -69l-28 -4h-1863v232h159z" />
    <glyph glyph-name="afii57432" unicode="&#x638;" horiz-adv-x="2106" arabic-form="isolated" 
d="M652 1705c55.333 -14.667 83 -42.332 83 -82.999v-478c0 -42.667 -23.667 -72 -71 -88h-348c-43.333 11.333 -65 25.666 -65 42.999c-6.66699 0 -11.667 18.333 -15 55v449c0 53.333 25.333 87.333 76 102h340zM652 1705c55.333 -14.667 83 -42.332 83 -82.999v-478
c0 -42.667 -23.667 -72 -71 -88h-348c-43.333 11.333 -65 25.666 -65 42.999c-6.66699 0 -11.667 18.333 -15 55v449c0 53.333 25.333 87.333 76 102h340zM735 731.004v-485l-3 -12h802v474c0 35.333 -17.667 53 -53 53h-700c-30.667 -3.33301 -46 -13.333 -46 -30z
M236 232.004l-0.000976562 644c9.33301 61.333 38 92 86 92l21 2h1579c54.667 0 90.334 -24.333 107.001 -73v-824c0 -26 -20.333 -49 -61 -69l-28 -4h-1863v232h159zM1042 1558l39.999 0.000976562c52 0 107 -27.667 165 -83c40.667 -52 61 -107 61 -165
c0 -98 -51 -173.667 -153 -227c-25.333 -10 -54 -15 -86 -15h-9c-119.333 0 -198.666 63.333 -237.999 190l-6 55c0 73.333 31.333 137.666 94 192.999c49.333 34.667 93.333 52 132 52z" />
    <glyph glyph-name="afii57433" unicode="&#x639;" horiz-adv-x="1427" arabic-form="isolated" 
d="M138 -604c-40.667 3.33301 -61.001 17.334 -61.001 42.001v554c0 40.667 29.333 69 88 85h99v3c-11.333 0 -22.666 17.333 -33.999 52v909c0 41.333 24.333 72 73 92h891c27.333 0 52.666 -19.333 75.999 -58l6 -28v-578l-6 -6h-455l-7 6v392c-4 44.667 -22 67 -54 67
c-37.333 -8.66699 -56 -27.334 -56 -56.001v-517c-1.33301 -82 32.334 -123 101.001 -123h551v-232h-777v-257c0 -76.667 49 -115 147 -115h629v-152l1 -1v-73l-1 -1v-5h-1211z" />
    <glyph glyph-name="afii57434" unicode="&#x63a;" horiz-adv-x="1427" arabic-form="isolated" 
d="M138 -604c-40.667 3.33301 -61.001 17.333 -61.001 42v554c0 40.667 29.333 69 88 85h99v3c-11.333 0 -22.666 17.333 -33.999 52v909c0 41.333 24.333 72 73 92h891c27.333 0 52.666 -19.333 75.999 -58l6 -28v-578l-6 -6h-455l-7 6v384c-4 44.667 -22 67 -54 67
c-37.333 -8.66699 -56 -27 -56 -55v-510c-1.33301 -82 32.334 -123 101.001 -123h551v-232h-777v-257c0 -76.667 49 -115 147 -115h629v-152l1 -1v-73l-1 -1v-5h-1211zM727.999 1726l40 0.000976562c52 0 107 -27.667 165 -83c40.667 -52 61 -106.667 61 -164
c0 -98.667 -51 -174.334 -153 -227.001c-25.333 -10.667 -54 -16 -86 -16h-8c-120 0 -199.667 63.667 -239 191l-6 54c0 74 31.333 138.333 94 193c49.333 34.667 93.333 52 132 52z" />
    <glyph glyph-name="afii57441" unicode="&#x641;" horiz-adv-x="2177" arabic-form="isolated" 
d="M1512 1703h39c52 0 107.333 -27.667 166 -83c40.667 -52 61 -106.667 61 -164c0 -98 -51 -173.667 -153 -227c-25.333 -10.667 -54 -16 -86 -16h-9c-119.333 0 -199 63.667 -239 191l-6 54c0 74 31.667 138.333 95 193c48.667 34.667 92.667 52 132 52zM1492 876
l-0.000976562 -390c6 -35.333 22.667 -53 50 -53h15c30.667 6 46 26.333 46 61v388c-7.33301 38.667 -25.666 58 -54.999 58c-33.333 0 -52 -21.333 -56 -64zM605.999 232l964.001 -0.000976562c20.667 4.66699 31 16 31 34v6h-464c-36 0 -63.333 24.333 -82 73v694
c7.33301 44.667 34.666 72.334 81.999 83.001h557c8 0.666992 16.667 1 26 1h264c8.66699 0 17 -0.333008 25 -1h9c19.333 0 37.333 -9 53.999 -27c8.66699 -8 15.334 -17 20.001 -27c0.666992 -1.33301 1.66699 -2.66602 3 -3.99902l1 -4l4 -10v-7l1 -6v-760
c0 -5.33301 -0.333008 -10.333 -1 -15v-189c0 -26 -20.333 -49 -61 -69l-28 -4h-1846c-42 0 -71.333 22.667 -88 68v976c0 37.333 30.667 63.666 92 78.999h287c62.667 0 101.667 -24.333 117 -73v-774c0 -24 11 -38.667 33 -44z" />
    <glyph glyph-name="afii57442" unicode="&#x642;" horiz-adv-x="2183" arabic-form="isolated" 
d="M1841 1703h39c52 0 107.333 -27.667 166 -83c40.667 -52 61 -106.667 61 -164c0 -98 -51 -173.667 -153 -227c-25.333 -10.667 -54 -16 -86 -16h-9c-119.333 0 -199 63.667 -239 191l-6 54c0 74 31.667 138.333 95 193c48.667 34.667 92.667 52 132 52zM1282 1711
l38.999 0.000976562c52.667 0 108 -27.667 166 -83c40.667 -52 61 -107 61 -165c0 -98 -51 -173.667 -153 -227c-25.333 -10 -53.666 -15 -84.999 -15h-10c-118.667 0 -198.334 63.333 -239.001 190l-6 55c0 73.333 32 137.666 96 192.999
c48.667 34.667 92.334 52 131.001 52zM1492 876.001l-0.000976562 -390c6 -35.333 22.667 -53 50 -53h15c30.667 6 46 26.333 46 61v388c-7.33301 38.667 -25.666 58 -54.999 58c-33.333 0 -52 -21.333 -56 -64zM605.998 232.001l964.002 -0.000976562
c20.667 4.66699 31 16 31 34v6h-464c-36 0 -63.333 24.333 -82 73v694c7.33301 44.667 34.666 72.334 81.999 83.001h557c8 0.666992 16.667 1 26 1h264c8.66699 0 17 -0.333008 25 -1h9c19.333 0 37.333 -9 53.999 -27c8.66699 -8 15.334 -17 20 -27
c0.666992 -1.33301 1.66699 -2.66602 3 -3.99902l1 -4l4 -10v-7l1 -6v-760c0 -5.33301 -0.333008 -10.333 -1 -15v-189c0 -26 -20.333 -49 -61 -69l-28 -4h-1846c-42 0 -71.333 22.667 -88 68v976c0 37.333 30.667 63.666 92 78.999h287c62.667 0 101.667 -24.333 117 -73
v-774c0 -24 11 -38.667 33 -44z" />
    <glyph glyph-name="afii57443" unicode="&#x643;" horiz-adv-x="2177" arabic-form="isolated" 
d="M1280 1058c77.333 -6.66699 116.001 -13.667 116.001 -21v-298l-7 -6h-115c-43.333 0 -72 -25.333 -86 -76v-16c9.33301 -54.667 34.666 -82 75.999 -82h148l5 -6v-245l-5 -6h-692l-6 6v241l6 6h189c-10 27.333 -15 71.333 -15 132c0 146 65.333 254.333 196 325
c42 22 103.333 37.333 184 46h6zM1601 232v1310c0 60 21.333 97.667 64 113l22 3h330c27.333 0 50.666 -15.333 69.999 -46c8.66699 -13.333 13 -23.666 13 -30.999v-1501c0 -40.667 -27.667 -67.334 -83 -80.001h-1858c-37.333 0 -64.666 23.667 -81.999 71v820
c0 35.333 26.667 61 80 77l21 2h287c72 -8.66699 108 -36 108 -82v-656h1028z" />
    <glyph glyph-name="afii57444" unicode="&#x644;" horiz-adv-x="1531" arabic-form="isolated" 
d="M958 -128v1691c0 36 24.667 63.333 74 82h340c34 0 61.333 -22.333 82 -67v-1863c0 -31.333 -24.333 -56 -73 -74h-187v-1h-881v1h-144c-46 0 -76.667 22.667 -92 68v823c0 29.333 22.333 54.666 67 75.999l34 3h297c65.333 -9.33301 98 -40 98 -92v-647h385z" />
    <glyph glyph-name="afii57445" unicode="&#x645;" horiz-adv-x="1350" arabic-form="isolated" 
d="M699 713l0.000976562 -459.001c0 -26 16.333 -41.333 49 -46h6c29.333 0 46.666 18.333 51.999 55v440c0 32.667 -18.333 52.334 -55 59.001c-28.667 0 -46 -16.333 -52 -49zM294.001 966.999c2 1.33301 4.33301 2.00098 7 2.00098h866c50 0 84 -20.333 102 -61l5 -21
v-796c-7.33301 -60.667 -37.666 -91 -90.999 -91h-487v-276c0 -40.667 -27.333 -67.334 -82 -80.001h-758l-1 1h-6v232h249c83.333 0 125.333 38.333 126 115v848c-12.667 74 10.666 116.333 69.999 127z" />
    <glyph glyph-name="afii57446" unicode="&#x646;" horiz-adv-x="1737" arabic-form="isolated" 
d="M851 617h35c45.333 0 96.333 -24.667 153 -74c31.333 -48.667 47 -82.667 47 -102l4 -45v-7c0 -57.333 -18.333 -106 -55 -146c-48.667 -47.333 -94.334 -71 -137.001 -71h-62c-35.333 2.66699 -74.666 20.667 -117.999 54c-47.333 49.333 -71 106 -71 170
c0 92.667 49.667 162.667 149 210zM1165 -128l-2 1017c0 36 24.333 63.333 73 82h340c34 0 61.667 -22.333 83 -67l2 -1189c0 -31.333 -24.667 -56 -74 -74h-1418c-46 0 -76.667 22.667 -92 68v1180c0 29.333 22.333 54.666 67 75.999l34 4h297
c65.333 -10 98 -40.667 98 -92v-1005h592z" />
    <glyph glyph-name="afii57470" unicode="&#x647;" horiz-adv-x="1200" arabic-form="isolated" 
d="M545 739v-501c6 -34 22.333 -51 49 -51h15c28.667 7.33301 43 21.333 43 42v516c-7.33301 30.667 -24.333 46 -51 46c-29.333 0 -48 -17.333 -56 -52zM139 5c-20.667 5.33301 -38.333 21.335 -53 48.002c-6 7.33301 -9 19.666 -9 36.999v780c0 49.333 25.667 81 77 95
l30 4h857c54.667 -14.667 82 -41.334 82 -80.001v-776c0 -72 -37.333 -110.667 -112 -116z" />
    <glyph glyph-name="afii57448" unicode="&#x648;" horiz-adv-x="1200" arabic-form="isolated" 
d="M545 739v-462c6 -34.667 22.333 -52 49 -52h15c28.667 8 43 22 43 42v478c-7.33301 30.667 -24.333 46 -51 46c-29.333 0 -48 -17.333 -56 -52zM652 -123v124.003h-493c-30 0 -54.333 17.333 -73 52c-6 7.33301 -9 19.666 -9 36.999v780c0 49.333 25.667 81 77 95l30 4
h857c54.667 -14.667 82 -41.334 82 -80.001v-1165c0 -40.667 -27.333 -67.334 -82 -80.001h-958l-1 1h-5v232h575z" />
    <glyph glyph-name="afii57449" unicode="&#x649;" horiz-adv-x="2605" arabic-form="isolated" 
d="M1671 971h741v-1c62 0 100.667 -24.333 116 -73v-824c0 -26 -20.333 -49 -61 -69l-28 -4h-2274c-42 0 -71.333 22.667 -88 68v823c0 37.333 30.667 63.666 92 78.999h287c62.667 0 101.667 -24.333 117 -73v-513c0 -101.333 50 -152 150 -152h1156
c100 0 150 50.667 150 152v355h-951l1 232c358 194.667 499.333 422.334 424 683.001h586c-6.66699 -290 -146 -517.667 -418 -683z" />
    <glyph glyph-name="afii57450" unicode="&#x64a;" horiz-adv-x="2605" arabic-form="isolated" 
d="M1671 971h741v-1c62 0 100.667 -24.333 116 -73v-824c0 -26 -20.333 -49 -61 -69l-28 -4h-2274c-42 0 -71.333 22.667 -88 68v823c0 37.333 30.667 63.666 92 78.999h287c62.667 0 101.667 -24.333 117 -73v-513c0 -101.333 50 -152 150 -152h1156
c100 0 150 50.667 150 152v355h-951l1 232c358 194.667 499.333 422.334 424 683.001h586c-6.66699 -290 -146 -517.667 -418 -683z" />
    <glyph glyph-name="afii57506" unicode="&#x67e;" horiz-adv-x="2177" arabic-form="isolated" 
d="M165 0c-42 0 -71.333 22.668 -88 68.001v823c0 37.333 30.667 63.666 92 78.999h287c62.667 0 101.667 -24.333 117 -73v-513c0 -101.333 50 -152 150 -152h728c100 0 150 50.667 150 152v467c0 44 9 73.667 27 89c19.333 20 50 30 92 30h264
c62 0 100.667 -24.333 116 -73v-824c0 -26 -20.333 -49 -61 -69l-28 -4h-1846zM645 -460.999c-40.667 42 -61.001 83.667 -61.001 125v38c0 24.667 8 50 24 76c36.667 66.667 94 100 172 100c42.667 0 77.334 -8.66699 104.001 -26c61.333 -46.667 92 -99 92 -157v-23
l-9 -54c-40.667 -88.667 -102 -133 -184 -133c-54.667 0 -100.667 18 -138 54zM1157 -492.999c-70.667 42 -106.001 100.001 -106.001 174.001c0 40 8.66699 73.667 26 101c38.667 64 95.334 96 170.001 96c38 0 66.667 -5.66699 86 -17
c74 -40.667 111 -99.334 111 -176.001c0 -34 -5.33301 -63 -16 -87c-44.667 -75.333 -104 -113 -178 -113c-34.667 0 -65.667 7.33301 -93 22zM877.998 -819.998c-40.667 42 -61 83.667 -61 125v37c0 24.667 8 50.334 24 77.001c36.667 66.667 94.334 100 173.001 100
c42 0 76.333 -8.66699 103 -26c62 -46.667 93 -99.334 93 -158.001v-23l-10 -53c-40.667 -89.333 -102.334 -134 -185.001 -134c-53.333 0 -99 18.333 -137 55z" />
    <glyph glyph-name="afii57507" unicode="&#x686;" horiz-adv-x="1459" arabic-form="isolated" 
d="M781 232v238.999h-499c-46 4.66699 -94 31.334 -144 80.001c-40.667 50.667 -61 100.667 -61 150v257l6 6h1023c117.333 0 176 -55 176 -165v-567h108v-232h-619c-134 0 -201 -65 -201 -195v-250c0 -34 15.333 -56.667 46 -68c8 -4 19 -6 33 -6h695l6 -6v-71l-6 -6h-1206
c-40.667 4 -61 18.667 -61 44v637v-84c0 2 0.333008 4.33301 1 7c0 153.333 68.333 230 205 230h498zM843 -268.001c-20.667 22 -31 42.999 -31 62.999v20c0 12 4.33301 24.667 13 38c18 34 47 51 87 51c21.333 0 38.666 -4.66699 51.999 -14
c31.333 -23.333 47 -49.666 47 -78.999v-12l-5 -27c-20.667 -44.667 -51.667 -67 -93 -67c-27.333 0 -50.666 9 -69.999 27zM1102 -284.002c-35.333 21.333 -53 50.668 -53 88.001c0 20 4.33301 37 13 51c20 32.667 48.667 49 86 49c19.333 0 34 -3 44 -9
c36.667 -20 55 -49.667 55 -89c0 -16.667 -2.33301 -31.334 -7 -44.001c-22.667 -38 -52.667 -57 -90 -57c-18 0 -34 3.66699 -48 11zM961 -450c-20.667 21.333 -31 42.333 -31 63v20c0 12 4 24.667 12 38c18.667 34 48 51 88 51c21.333 0 38.666 -4.66699 51.999 -14
c31.333 -22.667 47 -49 47 -79v-12l-5 -27c-20 -45.333 -51 -68 -93 -68c-27.333 0 -50.666 9.33301 -69.999 28z" />
    <glyph glyph-name="afii57508" unicode="&#x698;" horiz-adv-x="1001" arabic-form="isolated" 
d="M452 0v840.002c-16 96 28 139 132 129h258c54.667 -14.667 82 -41.334 82 -80.001v-1165c0 -40.667 -27.333 -67.334 -82 -80.001h-759l-1 1h-5v232h264c73.333 0 110.333 41 111 123zM393 1411c82 0 143.667 -44.666 185 -133.999l9 -53v-23
c0 -58.667 -31 -111.334 -93 -158.001c-26.667 -17.333 -61 -26 -103 -26c-78.667 0 -136 33.333 -172 100c-16.667 26 -25 51.667 -25 77v37c0 41.333 20.667 83 62 125c37.333 36.667 83 55 137 55zM861 1411c74 0 133.001 -38 177.001 -114c11.333 -24 17 -52.667 17 -86
c0 -77.333 -37 -136.333 -111 -177c-20 -11.333 -48.667 -17 -86 -17c-74.667 0 -131.334 32 -170.001 96c-17.333 28 -26 61.667 -26 101c0 74.667 35 132.667 105 174c28 15.333 59.333 23 94 23zM626.001 1770c82 0 143.667 -44.333 185 -133l10 -54v-23
c0 -58 -31.333 -110.333 -94 -157c-26.667 -17.333 -61 -26 -103 -26c-78 0 -135.333 33.333 -172 100c-16.667 26 -25 51.333 -25 76v38c0 41.333 20.333 83 61 125c38 36 84 54 138 54z" />
    <glyph glyph-name="afii57509" unicode="&#x6af;" horiz-adv-x="3350" arabic-form="isolated" 
d="M159 0c-37.333 0 -64.666 23.667 -81.999 71v820c0 35.333 26.667 61 80 77l21 2h287c72 -8.66699 108 -36 108 -82v-656h2195v237h-1793c-34 0 -58.333 26.333 -73 79v328c12 58.667 39.333 88 82 88h186c45.333 0 170.666 51.833 375.999 155.5s357 282.167 455 535.5
l2 3h527l6 -6c-77.333 -302 -316 -530 -716 -684v-4h1278c91.333 0 147.333 -36.667 168 -110l4 -39v-46l3 -765l-3 -4h-3111zM1151 1086l16 210c189.333 50 296.333 170.667 321 362l69 2h246l6 -6c-32 -162 -112.833 -288.333 -242.5 -379s-268.167 -153.667 -415.5 -189z
" />
    <glyph glyph-name="uniFB57" unicode="&#x67e;" horiz-adv-x="2274" arabic-form="final" 
d="M165 0c-42 0 -71.333 22.668 -88 68.001v823c0 37.333 30.667 63.666 92 78.999h287c62.667 0 101.667 -24.333 117 -73v-513c0 -101.333 52 -152 156 -152h727c96.667 0 146 51 148 153l-3 499c0 22 9 40.667 27 56c19.333 20 50 30 92 30h264
c62 0 100.667 -24.333 116 -73v-675h211v-222h-2146zM645 -460.999c-40.667 42 -61.001 83.667 -61.001 125v38c0 24.667 8 50 24 76c36.667 66.667 94 100 172 100c42.667 0 77.334 -8.66699 104.001 -26c61.333 -46.667 92 -99 92 -157v-23l-9 -54
c-40.667 -88.667 -102 -133 -184 -133c-54.667 0 -100.667 18 -138 54zM1157 -492.999c-70.667 42 -106.001 100.001 -106.001 174.001c0 40 8.66699 73.667 26 101c38.667 64 95.334 96 170.001 96c38 0 66.667 -5.66699 86 -17c74 -40.667 111 -99.334 111 -176.001
c0 -34 -5.33301 -63 -16 -87c-44.667 -75.333 -104 -113 -178 -113c-34.667 0 -65.667 7.33301 -93 22zM877.998 -819.998c-40.667 42 -61 83.667 -61 125v37c0 24.667 8 50.334 24 77.001c36.667 66.667 94.334 100 173.001 100c42 0 76.333 -8.66699 103 -26
c62 -46.667 93 -99.334 93 -158.001v-23l-10 -53c-40.667 -89.333 -102.334 -134 -185.001 -134c-53.333 0 -99 18.333 -137 55z" />
    <glyph glyph-name="uniFB58" unicode="&#x67e;" horiz-adv-x="1015" arabic-form="initial" 
d="M-81 0v77h2v155h402c79.333 0 119 39.667 119 119v500c0 44 9 73.667 27 89c19.333 20 50 30 92 30h263c62.667 0 101.667 -24.333 117 -73v-824c0 -26 -20.333 -49 -61 -69l-28 -4h-933zM140 -461c-40.667 42 -61.001 83.667 -61.001 125v38c0 24.667 8.33301 50 25 76
c36 66.667 93 100 171 100c42.667 0 77.334 -8.66699 104.001 -26c62 -46.667 93 -99 93 -157v-23l-10 -54c-40.667 -88.667 -102 -133 -184 -133c-54.667 0 -100.667 18 -138 54zM651.999 -493c-70.667 42 -106.001 100.001 -106.001 174.001c0 40 9 73.667 27 101
c38.667 64 95.334 96 170.001 96c37.333 0 66 -5.66699 86 -17c73.333 -40.667 110 -99.334 110 -176.001c0 -34 -5.33301 -63 -16 -87c-44 -75.333 -103.333 -113 -178 -113c-34.667 0 -65.667 7.33301 -93 22zM372.998 -819.999c-40.667 42 -61 83.667 -61 125v37
c0 24.667 8 50.334 24 77.001c37.333 66.667 95 100 173 100c42 0 76.333 -8.66699 103 -26c62 -46.667 93 -99.334 93 -158.001v-23l-10 -53c-40.667 -89.333 -102 -134 -184 -134c-54 0 -100 18.333 -138 55z" />
    <glyph glyph-name="uniFB59" unicode="&#x67e;" horiz-adv-x="982" arabic-form="medial" 
d="M-66 0v77h4v155h276c72.667 0 109 37 109 111v508c0 44 9.33301 73.667 28 89c18.667 20 49 30 91 30h264c62 0 100.667 -24.333 116 -73v-562c0 -68.667 35 -103 105 -103h104v-232h-1097zM141 -461c-41.333 42 -61.999 83.667 -61.999 125v38
c0 24.667 8.33301 50 25 76c36 66.667 93.333 100 172 100c42.667 0 77 -8.66699 103 -26c62 -46.667 93 -99 93 -157v-23l-9 -54c-40.667 -88.667 -102.334 -133 -185.001 -133c-54 0 -99.667 18 -137 54zM652.001 -493c-70 42 -105.001 100.001 -105.001 174.001
c0 40 8.66699 73.667 26 101c38.667 64 95.334 96 170.001 96c37.333 0 66 -5.66699 86 -17c74 -40.667 111 -99.334 111 -176.001c0 -34 -5.66699 -63 -17 -87c-44 -75.333 -103 -113 -177 -113c-34.667 0 -66 7.33301 -94 22zM374 -819.999
c-41.333 42 -62.001 83.667 -62.001 125v37c0 24.667 8.33301 50.334 25 77.001c36.667 66.667 94.334 100 173.001 100c41.333 0 75.333 -8.66699 102 -26c62.667 -46.667 94 -99.334 94 -158.001v-23l-10 -53c-41.333 -89.333 -103 -134 -185 -134
c-54 0 -99.667 18.333 -137 55z" />
    <glyph glyph-name="uniFB7B" unicode="&#x686;" horiz-adv-x="1459" arabic-form="final" 
d="M781 232v238.999h-499c-46 4.66699 -94 31.334 -144 80.001c-40.667 50.667 -61 100.667 -61 150v257l6 6h1023c117.333 0 176 -55 176 -165v-567h223v-232h-734c-134 0 -201 -65 -201 -195v-250c0 -34 15.333 -56.667 46 -68c8 -4 19 -6 33 -6h695l6 -6v-71l-6 -6h-1206
c-40.667 4 -61 18.667 -61 44v637v-84c0 2 0.333008 4.33301 1 7c0 153.333 68.333 230 205 230h498zM843 -268.001c-20.667 22 -31 42.999 -31 62.999v20c0 12 4.33301 24.667 13 38c18 34 47 51 87 51c21.333 0 38.666 -4.66699 51.999 -14
c31.333 -23.333 47 -49.666 47 -78.999v-12l-5 -27c-20.667 -44.667 -51.667 -67 -93 -67c-27.333 0 -50.666 9 -69.999 27zM1102 -284.002c-35.333 21.333 -53 50.668 -53 88.001c0 20 4.33301 37 13 51c20 32.667 48.667 49 86 49c19.333 0 34 -3 44 -9
c36.667 -20 55 -49.667 55 -89c0 -16.667 -2.33301 -31.334 -7 -44.001c-22.667 -38 -52.667 -57 -90 -57c-18 0 -34 3.66699 -48 11zM961 -450c-20.667 21.333 -31 42.333 -31 63v20c0 12 4 24.667 12 38c18.667 34 48 51 88 51c21.333 0 38.666 -4.66699 51.999 -14
c31.333 -22.667 47 -49 47 -79v-12l-5 -27c-20 -45.333 -51 -68 -93 -68c-27.333 0 -50.666 9.33301 -69.999 28z" />
    <glyph glyph-name="uniFB7C" unicode="&#x686;" horiz-adv-x="1692" arabic-form="initial" 
d="M950 232v238.999h-576c-46 4.66699 -93.667 31.334 -143 80.001c-41.333 50.667 -62 100.667 -62 150v257l6 6h1099c118 0 177 -55 177 -165v-567h130v-232h-1665v232h1034zM369 -461.001c-40.667 42 -61.001 83.667 -61.001 125v38c0 24.667 8.33301 50 25 76
c36 66.667 93 100 171 100c42.667 0 77.334 -8.66699 104.001 -26c62 -46.667 93 -99 93 -157v-23l-10 -54c-40.667 -88.667 -102 -133 -184 -133c-54.667 0 -100.667 18 -138 54zM880.999 -493.001c-70.667 42 -106.001 100.001 -106.001 174.001c0 40 9 73.667 27 101
c38.667 64 95.334 96 170.001 96c37.333 0 66 -5.66699 86 -17c73.333 -40.667 110 -99.334 110 -176.001c0 -34 -5.33301 -63 -16 -87c-44 -75.333 -103.333 -113 -178 -113c-34.667 0 -65.667 7.33301 -93 22zM601.998 -820c-40.667 42 -61 83.667 -61 125v37
c0 24.667 8 50.334 24 77.001c37.333 66.667 95 100 173 100c42 0 76.333 -8.66699 103 -26c62 -46.667 93 -99.334 93 -158.001v-23l-10 -53c-40.667 -89.333 -102 -134 -184 -134c-54 0 -100 18.333 -138 55z" />
    <glyph glyph-name="uniFB7D" unicode="&#x686;" horiz-adv-x="1607" arabic-form="medial" 
d="M1736 77l6 -6.00098v-65l-6 -6h-1865v232h1073v239h-576c-46 4.66699 -93.667 31.334 -143 80.001c-41.333 50.667 -62 100.667 -62 150v257l6 6h1099c118 0 177 -55 177 -165v-567h291v-155zM369 -461.001c-40.667 42 -61.001 83.667 -61.001 125v38
c0 24.667 8.33301 50 25 76c36 66.667 93 100 171 100c42.667 0 77.334 -8.66699 104.001 -26c62 -46.667 93 -99 93 -157v-23l-10 -54c-40.667 -88.667 -102 -133 -184 -133c-54.667 0 -100.667 18 -138 54zM880.999 -493.001
c-70.667 42 -106.001 100.001 -106.001 174.001c0 40 9 73.667 27 101c38.667 64 95.334 96 170.001 96c37.333 0 66 -5.66699 86 -17c73.333 -40.667 110 -99.334 110 -176.001c0 -34 -5.33301 -63 -16 -87c-44 -75.333 -103.333 -113 -178 -113
c-34.667 0 -65.667 7.33301 -93 22zM601.998 -820c-40.667 42 -61 83.667 -61 125v37c0 24.667 8 50.334 24 77.001c37.333 66.667 95 100 173 100c42 0 76.333 -8.66699 103 -26c62 -46.667 93 -99.334 93 -158.001v-23l-10 -53c-40.667 -89.333 -102 -134 -184 -134
c-54 0 -100 18.333 -138 55z" />
    <glyph glyph-name="uniFB8B" unicode="&#x698;" horiz-adv-x="1087" arabic-form="final" 
d="M924 232l258 0.00195312v-232h-258v-276c0 -40.667 -27.333 -67.334 -82 -80.001h-759l-1 1h-5v232h264c73.333 0 110.333 41 111 123v840c-16 96 28 139 132 129h258c54.667 -14.667 82 -41.334 82 -80.001v-657zM393 1411c82 0 143.667 -44.666 185 -133.999l9 -53v-23
c0 -58.667 -31 -111.334 -93 -158.001c-26.667 -17.333 -61 -26 -103 -26c-78.667 0 -136 33.333 -172 100c-16.667 26 -25 51.667 -25 77v37c0 41.333 20.667 83 62 125c37.333 36.667 83 55 137 55zM861 1411c74 0 133.001 -38 177.001 -114c11.333 -24 17 -52.667 17 -86
c0 -77.333 -37 -136.333 -111 -177c-20 -11.333 -48.667 -17 -86 -17c-74.667 0 -131.334 32 -170.001 96c-17.333 28 -26 61.667 -26 101c0 74.667 35 132.667 105 174c28 15.333 59.333 23 94 23zM626.001 1770c82 0 143.667 -44.333 185 -133l10 -54v-23
c0 -58 -31.333 -110.333 -94 -157c-26.667 -17.333 -61 -26 -103 -26c-78 0 -135.333 33.333 -172 100c-16.667 26 -25 51.333 -25 76v38c0 41.333 20.333 83 61 125c38 36 84 54 138 54z" />
    <glyph glyph-name="uniFB8F" unicode="&#x6a9;" horiz-adv-x="2262" arabic-form="final" 
d="M1280 1058c77.333 -6.66699 116.001 -13.667 116.001 -21v-298l-7 -6h-115c-43.333 0 -72 -25.333 -86 -76v-16c9.33301 -54.667 34.666 -82 75.999 -82h148l5 -6v-245l-5 -6h-692l-6 6v241l6 6h189c-10 27.333 -15 71.333 -15 132c0 146 65.333 254.333 196 325
c42 22 103.333 37.333 184 46h6zM1601 232v1310c0 60 21.333 97.667 64 113l22 3h330c27.333 0 50.666 -15.333 69.999 -46c8.66699 -13.333 13 -23.666 13 -30.999v-1349h194v-232h-2135c-37.333 0 -64.666 23.667 -81.999 71v820c0 35.333 26.667 61 80 77l21 2h287
c72 -8.66699 108 -36 108 -82v-656h1028z" />
    <glyph glyph-name="uniFB90" unicode="&#x6a9;" horiz-adv-x="2533" arabic-form="initial" 
d="M1952 232v237h-1794c-33.333 0 -57.666 26.333 -72.999 79v328c12.667 58.667 40.334 88 83.001 88h186c45.333 0 170.666 51.833 375.999 155.5s356.666 282.167 453.999 535.5l3 3h527l6 -6c-78 -302 -317 -530 -717 -684v-4h1279c91.333 0 147.333 -36.667 168 -110
l3 -39v-46l4 -765l-4 -4h-2502v232h2001z" />
    <glyph glyph-name="uniFB91" unicode="&#x6a9;" horiz-adv-x="2702" arabic-form="medial" 
d="M2540 232h306.999v-232h-10v0h-410v0h-2468v232h2077v237h-1793c-33.333 0 -57.666 26.333 -72.999 79v328c12.667 58.667 40 88 82 88h186c45.333 0 170.833 51.833 376.5 155.5s357.167 282.167 454.5 535.5l2 3h527l6 -6c-77.333 -302 -316 -530 -716 -684v-4h1278
c91.333 0 147.666 -36.667 169 -110l3 -39v-46z" />
    <glyph glyph-name="uniFB93" unicode="&#x6af;" horiz-adv-x="3433" arabic-form="final" 
d="M159 0c-37.333 0 -64.666 23.667 -81.999 71v820c0 35.333 26.667 61 80 77l21 2h287c72 -8.66699 108 -36 108 -82v-656h2195v237h-1793c-34 0 -58.333 26.333 -73 79v328c12 58.667 39.333 88 82 88h186c45.333 0 170.666 51.833 375.999 155.5s357 282.167 455 535.5
l2 3h527l6 -6c-77.333 -302 -316 -530 -716 -684v-4h1278c91.333 0 147.333 -36.667 168 -110l4 -39v-46l2 -537h306v-232h-10v0h-411v0h-2998zM1151 1086l16 210c189.333 50 296.333 170.667 321 362l69 2h246l6 -6c-32 -162 -112.833 -288.333 -242.5 -379
s-268.167 -153.667 -415.5 -189z" />
    <glyph glyph-name="uniFB94" unicode="&#x6af;" horiz-adv-x="2533" arabic-form="initial" 
d="M1952 232v237h-1794c-33.333 0 -57.666 26.333 -72.999 79v328c12.667 58.667 40.334 88 83.001 88h186c45.333 0 170.666 51.833 375.999 155.5s356.666 282.167 453.999 535.5l3 3h527l6 -6c-78 -302 -317 -530 -717 -684v-4h1279c91.333 0 147.333 -36.667 168 -110
l3 -39v-46l4 -765l-4 -4h-2502v232h2001zM335 1086l16 210c189.333 50 296.333 170.667 321 362l69 2h246l6 -6c-32 -162 -112.833 -288.333 -242.5 -379s-268.167 -153.667 -415.5 -189z" />
    <glyph glyph-name="uniFB95" unicode="&#x6af;" horiz-adv-x="2702" arabic-form="medial" 
d="M-41 0l-0.000976562 232h2077v237h-1793c-33.333 0 -57.666 26.333 -72.999 79v328c12.667 58.667 40 88 82 88h186c45.333 0 170.833 51.833 376.5 155.5s357.167 282.167 454.5 535.5l2 3h527l6 -6c-77.333 -302 -316 -530 -716 -684v-4h1278
c91.333 0 147.666 -36.667 169 -110l3 -39v-46l2 -282v-255h307v-232h-10v0h-410v0h-2468zM420.999 1086l14.999 210c190 50 297 170.667 321 362l69 2h247l5 -6c-32 -162 -112.667 -288.333 -242 -379s-267.666 -153.667 -414.999 -189z" />
    <glyph glyph-name="uniFBA5" unicode="&#x6c0;" horiz-adv-x="1281" arabic-form="final" 
d="M545 294v461c6 35.333 22.333 53 49 53h15c28.667 -8.66699 43 -23 43 -43v-477c-7.33301 -30.667 -24.333 -46 -51 -46c-29.333 0 -48 17.333 -56 52zM1338 0l-0.000976562 231.999h-108c-71.333 0 -107 31.333 -107 94v842c0 36 -18 54 -54 54h-368
c-39.333 2 -55.666 -17.333 -48.999 -58v-195h-493c-30 0 -54.333 -17 -73 -51c-6 -7.33301 -9 -19.666 -9 -36.999v-780c0 -48.667 25.667 -80.667 77 -96l31 -5h1152v0h1zM493.999 1698l16.999 -0.000976562c46.667 0 71.334 -5 74.001 -15v-221l-6 -6h-95
c-36.667 0 -55 -21.333 -55 -64c0 -40.667 17.333 -61 52 -61h110l6 -6v-181l-6 -6h-508l-6 6v208l6 7h138v79c0 106.667 62.333 188.334 187 245.001c31.333 10 60 15 86 15z" />
    <glyph glyph-name="uniFBFD" unicode="&#x6cc;" horiz-adv-x="2704" arabic-form="final" 
d="M2109 0c-28.667 0 -53.334 22.666 -74.001 67.999l-3 45v634c-1.33301 20 -21.666 43.333 -60.999 70c-41.333 20.667 -77 31 -107 31h-31c-58 0 -109 -32.667 -153 -98v-677c0 -25.333 -18 -47.666 -54 -66.999l-25 -6h-1451c-28 0 -52.333 22.667 -73 68v810
c0 40 21.667 68.667 65 86l17 4h331c28 0 51.667 -15.333 71 -46c8 -14 12 -24.333 12 -31v-580c0 -38 47 -63.667 141 -77l119 -8h91c160 8 246 30.333 258 67v564c0 56 22.333 91.667 67 107l18 4h1166c46.667 0 79.334 -24.667 98 -74v-662h227v-232h-649z" />
    <glyph glyph-name="uniFBFE" unicode="&#x6cc;" horiz-adv-x="746" arabic-form="initial" 
d="M-73 0l-0.000976562 77h2v155h118c79.333 0 119 39.667 119 119v500c0 44 9 73.667 27 89c18.667 20 49.334 30 92.001 30h263c62 0 100.667 -24.333 116 -73v-824c0 -26 -20.333 -49 -61 -69l-27 -4h-649zM85.999 -95c82 0 143.334 -44.667 184.001 -134l11 -53v-23
c0 -58.667 -31.333 -111 -94 -157c-26.667 -18 -61.334 -27 -104.001 -27c-77.333 0 -134.333 33.667 -171 101c-16.667 26 -25 51.333 -25 76v37c0 41.333 20.667 83 62 125c37.333 36.667 83 55 137 55zM553 -95c74.667 0 134.001 -37.667 178.001 -113
c11.333 -24.667 17 -53.667 17 -87c0 -77.333 -37 -136.333 -111 -177c-20 -11.333 -48.667 -17 -86 -17c-74.667 0 -131.334 32 -170.001 96c-17.333 28 -26 61.667 -26 101c0 74.667 35 133 105 175c28 14.667 59 22 93 22z" />
    <glyph glyph-name="uniFBFF" unicode="&#x6cc;" horiz-adv-x="839" arabic-form="medial" 
d="M185 -95c82.667 0 144.334 -44.667 185.001 -134l10 -53v-23c0 -58.667 -31.333 -111 -94 -157c-26.667 -18 -60.667 -27 -102 -27c-78.667 0 -136.334 33.667 -173.001 101c-15.333 26 -23 51.333 -23 76v37c0 41.333 20 83 60 125c38 36.667 83.667 55 137 55zM653 -95
c74.667 0 133.667 -37.667 177 -113c11.333 -24.667 17 -53.667 17 -87c0 -77.333 -37 -136.333 -111 -177c-20 -11.333 -48.333 -17 -85 -17c-75.333 0 -132 32 -170 96c-18 28 -27 61.667 -27 101c0 74.667 35 133 105 175c28.667 14.667 60 22 94 22zM-57 0v77h4v155h108
c73.333 0 110 37 110 111v508c0 44 9 73.667 27 89c19.333 20 50 30 92 30h263c62.667 0 101.667 -24.333 117 -73v-562c0 -68.667 34.667 -103 104 -103h105v-232h-930z" />
    <glyph glyph-name="uniFE82" unicode="&#x622;" horiz-adv-x="783" arabic-form="final" 
d="M808 2068h4.00098c0 -56.667 -22.667 -128 -68 -214c-48.667 -46.667 -86.334 -70 -113.001 -70h-58c-38.667 0 -121.334 12 -248.001 36l-83 10c-118.667 0 -205 -43 -259 -129h-7c8 153.333 54 246 138 278l80 13c60.667 -6 153.334 -20.333 278.001 -43l76 -3h40
c41.333 2 93.333 21.333 156 58zM208.001 0c-49.333 0 -80 25.667 -92 77v1508c17.333 48.667 45 73 83 73h327c28 0 52.667 -16.333 74 -49c5.33301 -7.33301 8 -19.333 8 -36v-1219c0 -81.333 41.333 -122 124 -122h189v-232h-713z" />
    <glyph glyph-name="uniFE84" unicode="&#x623;" horiz-adv-x="737" arabic-form="final" 
d="M509 2338h18c46 0 70.667 -5 74 -15v-221l-7 -6h-95c-36.667 0 -55 -21.333 -55 -64c0 -40.667 17.333 -61 52 -61h111l6 -6v-180l-6 -6h-509l-6 6v208l6 6h138v79c0 106.667 62.333 188.334 187 245c32 10 60.667 15 86 15zM169 0c-48.667 0 -79.332 25.667 -91.999 77
v1508c17.333 48.667 44.666 73 81.999 73h328c28 0 52.667 -16.333 74 -49c6 -7.33301 9 -19.333 9 -36v-1219c0 -81.333 41 -122 123 -122h227v-232h-751z" />
    <glyph glyph-name="uniFE86" unicode="&#x624;" horiz-adv-x="1304" arabic-form="final" 
d="M761 1632h17.999c46.667 0 71.334 -5 74.001 -15v-220l-7 -7h-94c-36.667 0 -55 -21.333 -55 -64c0 -40.667 17.333 -61 52 -61h110l6 -6v-181l-6 -6h-508l-6 6v208l6 6h137v80c0 107.333 62.333 189 187 245c32 10 60.667 15 86 15zM544.999 739v-462
c6 -34.667 22.333 -52 49 -52h15c28.667 8 43 22 43 42v478c-7.33301 30.667 -24.333 46 -51 46c-29.333 0 -48 -17.333 -56 -52zM1123 232l229 0.00292969l-1 -232h-228v-276c0 -40.667 -27.333 -67.334 -82 -80.001h-958l-1 1h-5v232h575v124h-493
c-30 0 -54.333 17.333 -73 52c-6 7.33301 -9 19.666 -9 36.999v780c0 49.333 25.667 81 77 95l30 4h857c54.667 -14.667 82 -41.334 82 -80.001v-657z" />
    <glyph glyph-name="uniFE88" unicode="&#x625;" horiz-adv-x="754" arabic-form="final" 
d="M494 -82h16.999c46.667 0 71.334 -5 74.001 -15v-220l-6 -6h-95c-36.667 0 -55 -21.667 -55 -65c0 -40.667 17.333 -61 52 -61h110l6 -6v-180l-6 -7h-508l-6 7v207l6 7h138v79c0 107.333 62.333 189 187 245c31.333 10 60 15 86 15zM168.999 0
c-48.667 0 -79.332 25.667 -91.999 77v1508c17.333 48.667 44.666 73 81.999 73h328c28 0 52.667 -16.333 74 -49c6 -7.33301 9 -19.333 9 -36v-1219c0 -81.333 41 -122 123 -122h112v-232h-636z" />
    <glyph glyph-name="uniFE8A" unicode="&#x626;" horiz-adv-x="2687" arabic-form="final" 
d="M498 1632h17.999c46.667 0 71.334 -5 74.001 -15v-220l-6 -7h-96c-36.667 0 -55 -21.333 -55 -64c0 -40.667 17.667 -61 53 -61h110l5 -6v-181l-5 -6h-508l-7 6v208l7 6h138v80c0 107.333 62 189 186 245c32 10 60.667 15 86 15zM2109 0
c-28.667 0 -53.335 22.666 -74.002 67.999l-3 45v634c-1.33301 20 -21.666 43.333 -60.999 70c-41.333 20.667 -77 31 -107 31h-31c-58 0 -109 -32.667 -153 -98v-677c0 -25.333 -18 -47.666 -54 -66.999l-25 -6h-1451c-28 0 -52.333 22.667 -73 68v810
c0 40 21.667 68.667 65 86l17 4h331c28 0 51.667 -15.333 71 -46c8 -14 12 -24.333 12 -31v-580c0 -38 47 -63.667 141 -77l119 -8h91c160 8 246 30.333 258 67v564c0 56 22.333 91.667 67 107l18 4h1166c46.667 0 79.334 -24.667 98.001 -74v-662h212v-232h-634z" />
    <glyph glyph-name="uniFE8B" unicode="&#x626;" horiz-adv-x="738" arabic-form="initial" 
d="M560 1632h19c46.667 0 71 -5 73 -15v-220l-6 -7h-95c-36 0 -54 -21.333 -54 -64c0 -40.667 17 -61 51 -61h110l7 -6v-181l-7 -6h-507l-6 6v208l6 6h137v80c0 107.333 62 189 186 245c32 10 60.667 15 86 15zM-73 0v77h2v155h118c79.333 0 119 39.667 119 119v500
c0 44 9 73.667 27 89c19.333 20 50 30 92 30h263c62.667 0 101.667 -24.333 117 -73v-824c0 -26 -20.333 -49 -61 -69l-28 -4h-649z" />
    <glyph glyph-name="uniFE8C" unicode="&#x626;" horiz-adv-x="824" arabic-form="medial" 
d="M575 1632h19.001c46.667 0 71 -5 73 -15v-220l-6 -7h-94c-36.667 0 -55 -21.333 -55 -64c0 -40.667 17.333 -61 52 -61h110l6 -6v-181l-6 -6h-508l-6 6v208l6 6h137v80c0 107.333 62.333 189 187 245c31.333 10 59.666 15 84.999 15zM-56.999 0v77h4v155h108
c73.333 0 110 37 110 111v508c0 44 9 73.667 27 89c19.333 20 50 30 92 30h263c62.667 0 101.667 -24.333 117 -73v-562c0 -68.667 34.667 -103 104 -103h105v-232h-930z" />
    <glyph glyph-name="uniFE8E" unicode="&#x627;" horiz-adv-x="732" arabic-form="final" 
d="M169 0c-48.667 0 -79.332 25.667 -91.999 77v1508c17.333 48.667 44.666 73 81.999 73h328c28 0 52.667 -16.333 74 -49c6 -7.33301 9 -19.333 9 -36v-1219c0 -81.333 41 -122 123 -122h67v-232h-591z" />
    <glyph glyph-name="uniFE90" unicode="&#x628;" horiz-adv-x="2274" arabic-form="final" 
d="M165 0c-42 0 -71.333 22.668 -88 68.001v823c0 37.333 30.667 63.666 92 78.999h287c62.667 0 101.667 -24.333 117 -73v-513c0 -101.333 52 -152 156 -152h727c96.667 0 146 51 148 153l-3 499c0 22 9 40.667 27 56c19.333 20 50 30 92 30h264
c62 0 100.667 -24.333 116 -73v-675h211v-222h-2146zM1078 -107.999l39.999 0.000976562c52 0 107 -27.333 165 -82c40.667 -52.667 61 -108 61 -166c0 -98 -51 -173.333 -153 -226c-25.333 -10.667 -53.666 -16 -84.999 -16h-9c-119.333 0 -199 63.333 -239 190l-6 55
c0 73.333 31.667 137.666 95 192.999c49.333 34.667 93 52 131 52z" />
    <glyph glyph-name="uniFE91" unicode="&#x628;" horiz-adv-x="738" arabic-form="initial" 
d="M250 -100l40 0.000976562c52 0 107 -27.667 165 -83c40.667 -52.667 61 -108 61 -166c0 -98 -51 -173.333 -153 -226c-25.333 -10 -54 -15 -86 -15h-8c-120 0 -199.667 63.333 -239 190l-6 55c0 73.333 31.333 137.666 94 192.999c49.333 34.667 93.333 52 132 52z
M-73 0.000976562v77h2v155h118c79.333 0 119 39.667 119 119v500c0 44 9 73.667 27 89c19.333 20 50 30 92 30h263c62.667 0 101.667 -24.333 117 -73v-824c0 -26 -20.333 -49 -61 -69l-28 -4h-649z" />
    <glyph glyph-name="uniFE92" unicode="&#x628;" horiz-adv-x="824" arabic-form="medial" 
d="M378 -108l39.999 0.000976562c52 0 107 -27.333 165 -82c40.667 -52.667 61 -108 61 -166c0 -98 -51 -173.333 -153 -226c-25.333 -10.667 -53.666 -16 -84.999 -16h-9c-119.333 0 -199 63.333 -239 190l-6 55c0 73.333 31.333 137.666 94 192.999
c49.333 34.667 93.333 52 132 52zM-57.001 0.000976562v77h4v155h108c73.333 0 110 37 110 111v508c0 44 9 73.667 27 89c19.333 20 50 30 92 30h263c62.667 0 101.667 -24.333 117 -73v-562c0 -68.667 34.667 -103 104 -103h105v-232h-930z" />
    <glyph glyph-name="uniFE96" unicode="&#x62a;" horiz-adv-x="2274" arabic-form="final" 
d="M165 0c-42 0 -71.333 22.668 -88 68.001v823c0 37.333 30.667 63.666 92 78.999h287c62.667 0 101.667 -24.333 117 -73v-513c0 -101.333 52 -152 156 -152h727c96.667 0 146 51 148 153l-3 499c0 22 9 40.667 27 56c19.333 20 50 30 92 30h264
c62 0 100.667 -24.333 116 -73v-675h226v-222h-2161zM844 1362c82 0 143.334 -44.333 184.001 -133l10 -54v-23c0 -58 -31 -110.333 -93 -157c-26.667 -17.333 -61.334 -26 -104.001 -26c-78 0 -135.333 33.333 -172 100c-16 26 -24 51.333 -24 76v38
c0 41.333 20.333 83 61 125c37.333 36 83.333 54 138 54zM1311 1362c74.667 0 134 -37.666 178 -112.999c10.667 -24.667 16 -53.667 16 -87c0 -76.667 -36.667 -135.334 -110 -176.001c-20 -11.333 -48.667 -17 -86 -17c-75.333 0 -132 32 -170 96
c-18 27.333 -27 61 -27 101c0 74 35.333 132 106 174c27.333 14.667 58.333 22 93 22z" />
    <glyph glyph-name="uniFE97" unicode="&#x62a;" horiz-adv-x="777" arabic-form="initial" 
d="M154 1456c82 0 143.333 -44.666 184 -133.999l10 -54v-22c0 -58.667 -31 -111.334 -93 -158.001c-26.667 -18 -61 -27 -103 -27c-78 0 -135.333 33.667 -172 101c-16 26 -24 51.667 -24 77v36c0 42 20 84 60 126c38 36.667 84 55 138 55zM575 1456
c75.333 0 134.667 -37.667 178 -113c11.333 -25.333 17 -54.333 17 -87c0 -77.333 -37 -136.333 -111 -177c-20 -12 -48.667 -18 -86 -18c-74.667 0 -131 32.333 -169 97c-18 28 -27 61.667 -27 101c0 74.667 35 132.667 105 174c28 15.333 59 23 93 23z
M-73.999 0.000976562v77h2v155h118c79.333 0 119 39.667 119 119v500c0 44 9 73.667 27 89c19.333 20 50 30 92 30h263c62.667 0 101.667 -24.333 117 -73v-824c0 -26 -20.333 -49 -61 -69l-28 -4h-649z" />
    <glyph glyph-name="uniFE98" unicode="&#x62a;" horiz-adv-x="831" arabic-form="medial" 
d="M207 1456c82 0 143.668 -44.666 185.001 -133.999l10 -54v-22c0 -58.667 -31.333 -111.334 -94 -158.001c-26.667 -18 -60.667 -27 -102 -27c-78.667 0 -136.334 33.667 -173.001 101c-16.667 26 -25 51.667 -25 77v36c0 42 20.667 84 62 126c37.333 36.667 83 55 137 55
zM629.001 1456c74.667 0 133.667 -37.667 177 -113c11.333 -25.333 17 -54.333 17 -87c0 -77.333 -37 -136.333 -111 -177c-20 -12 -48.333 -18 -85 -18c-75.333 0 -132 32.333 -170 97c-18 28 -27 61.667 -27 101c0 74.667 35 132.667 105 174c28.667 15.333 60 23 94 23z
M-57.999 0.000976562v77h4v155h108c73.333 0 110 37 110 111v508c0 44 9 73.667 27 89c19.333 20 50 30 92 30h263c62.667 0 101.667 -24.333 117 -73v-562c0 -68.667 34.667 -103 104 -103h105v-232h-930z" />
    <glyph glyph-name="uniFE9A" unicode="&#x62b;" horiz-adv-x="2256" arabic-form="final" 
d="M165 0c-42 0 -71.333 22.668 -88 68.001v823c0 37.333 30.667 63.666 92 78.999h287c62.667 0 101.667 -24.333 117 -73v-513c0 -101.333 52 -152 156 -152h727c96.667 0 146 51 148 153l-3 499c0 22 9 40.667 27 56c19.333 20 50 30 92 30h264
c62 0 100.667 -24.333 116 -73v-671h226v-226h-2161zM844 1362c82 0 143.334 -44.333 184.001 -133l10 -54v-23c0 -58 -31 -110.333 -93 -157c-26.667 -17.333 -61.334 -26 -104.001 -26c-78 0 -135.333 33.333 -172 100c-16 26 -24 51.333 -24 76v38
c0 41.333 20.333 83 61 125c37.333 36 83.333 54 138 54zM1311 1362c74.667 0 134 -37.666 178 -112.999c10.667 -24.667 16 -53.667 16 -87c0 -76.667 -36.667 -135.334 -110 -176.001c-20 -11.333 -48.667 -17 -86 -17c-75.333 0 -132 32 -170 96
c-18 27.333 -27 61 -27 101c0 74 35.333 132 106 174c27.333 14.667 58.333 22 93 22zM1077 1722c82 0 143.333 -44.666 184 -133.999l10 -53v-23c0 -58.667 -31 -111.334 -93 -158.001c-26.667 -17.333 -61 -26 -103 -26c-78 0 -135.667 33.333 -173 100
c-16 26 -24 51.667 -24 77v37c0 41.333 20.333 83 61 125c38 36.667 84 55 138 55z" />
    <glyph glyph-name="uniFE9B" unicode="&#x62b;" horiz-adv-x="775" arabic-form="initial" 
d="M158 1416c82 0 143.334 -44.666 184.001 -133.999l10 -53v-23c0 -58.667 -31 -111.334 -93 -158.001c-26.667 -17.333 -61.334 -26 -104.001 -26c-77.333 0 -134 33.333 -170 100c-17.333 26 -26 51.667 -26 77v37c0 41.333 20.333 83 61 125c38 36.667 84 55 138 55z
M625.001 1416c74 0 133.334 -37.667 178.001 -113c11.333 -24.667 17 -53.667 17 -87c0 -77.333 -37.333 -136.333 -112 -177c-19.333 -11.333 -48 -17 -86 -17c-74.667 0 -131.334 32 -170.001 96c-17.333 28 -26 61.667 -26 101c0 74.667 35.333 133 106 175
c28 14.667 59 22 93 22zM391.002 1775c82 0 143.334 -44.333 184.001 -133l10 -54v-23c0 -58 -31 -110.333 -93 -157c-26.667 -17.333 -61 -26 -103 -26c-78.667 0 -136.334 33.333 -173.001 100c-16 26 -24 51.333 -24 76v38c0 41.333 20.667 83 62 125
c37.333 36 83 54 137 54zM-71.9971 0.000976562v77h2v155h118c79.333 0 119 39.667 119 119v500c0 44 9 73.667 27 89c19.333 20 50 30 92 30h263c62.667 0 101.667 -24.333 117 -73v-824c0 -26 -20.333 -49 -61 -69l-28 -4h-649z" />
    <glyph glyph-name="uniFE9C" unicode="&#x62b;" horiz-adv-x="847" arabic-form="medial" 
d="M194 1439c82 0 143.333 -44.666 184 -133.999l10 -53v-23c0 -58.667 -31 -111.334 -93 -158.001c-26.667 -17.333 -61.334 -26 -104.001 -26c-77.333 0 -134.666 33.333 -171.999 100c-15.333 26 -23 51.667 -23 77v37c0 41.333 20 83 60 125c38 36.667 84 55 138 55z
M661 1439c74 0 133.332 -37.667 177.999 -113c11.333 -24.667 17 -53.667 17 -87c0 -77.333 -37.333 -136.333 -112 -177c-19.333 -11.333 -47.666 -17 -84.999 -17c-75.333 0 -132 32 -170 96c-18 28 -27 61.667 -27 101c0 74.667 35.333 132.667 106 174
c28 15.333 59 23 93 23zM426.999 1798c82.667 0 144.333 -44.333 185 -133l9 -54v-23c0 -58 -31 -110.333 -93 -157c-26 -17.333 -60.333 -26 -103 -26c-78 0 -135.667 33.333 -173 100c-16 26 -24 51.333 -24 76v38c0 41.333 20.667 83 62 125c37.333 36 83 54 137 54z
M-58.002 0.000976562v77h4v155h108c73.333 0 110 37 110 111v508c0 44 9 73.667 27 89c19.333 20 50 30 92 30h263c62.667 0 101.667 -24.333 117 -73v-562c0 -68.667 34.667 -103 104 -103h105v-232h-930z" />
    <glyph glyph-name="uniFE9E" unicode="&#x62c;" horiz-adv-x="1443" arabic-form="final" 
d="M964 -49h34.001c45.333 0 93.333 -24 144 -72c36 -45.333 54 -93 54 -143c0 -84.667 -44.667 -150 -134 -196c-22 -8.66699 -47 -13 -75 -13h-7c-104.667 0 -174.334 54.667 -209.001 164l-5 48c0 63.333 27.667 119 83 167c42.667 30 81 45 115 45zM781.001 232v238.999
h-499c-46 4.66699 -94 31.334 -144 80.001c-40.667 50.667 -61 100.667 -61 150v257l6 6h1023c117.333 0 176 -55 176 -165v-567h200v-232h-711c-134 0 -201 -65 -201 -195v-250c0 -34 15.333 -56.667 46 -68c8 -4 19 -6 33 -6h695l6 -6v-71l-6 -6h-1206
c-40.667 4 -61 18.667 -61 44v553c0 2 0.333008 4.33301 1 7c0 153.333 68.333 230 205 230h498z" />
    <glyph glyph-name="uniFE9F" unicode="&#x62c;" horiz-adv-x="1684" arabic-form="initial" 
d="M942 232v238.999h-575c-46 4.66699 -94 31.334 -144 80.001c-40.667 50.667 -61 100.667 -61 150v257l6 6h1099c118 0 177 -55 177 -165v-567h160v-232h-1665v232h1003zM940 -77.001h39.999c52 0 107 -27.667 165 -83c40.667 -52.667 61 -108 61 -166
c0 -98 -51 -173.333 -153 -226c-25.333 -10 -53.666 -15 -84.999 -15h-9c-119.333 0 -199 63.333 -239 190l-6 55c0 72.667 31.667 137 95 193c49.333 34.667 93 52 131 52z" />
    <glyph glyph-name="uniFEA0" unicode="&#x62c;" horiz-adv-x="1607" arabic-form="medial" 
d="M1659 77l6 -6.00098v-65l-6 -6h-1704v232h989v239h-576c-46 4.66699 -94 31.334 -144 80.001c-40.667 50.667 -61 100.667 -61 150v257l6 6h1098c118.667 0 178 -55 178 -165v-567h214v-155zM1194 -77.001h39.999c52 0 107 -27.667 165 -83
c40.667 -52.667 61 -108 61 -166c0 -98 -51 -173.333 -153 -226c-25.333 -10 -53.666 -15 -84.999 -15h-9c-119.333 0 -199 63.333 -239 190l-6 55c0 72.667 31.667 137 95 193c49.333 34.667 93 52 131 52z" />
    <glyph glyph-name="uniFEA2" unicode="&#x62d;" horiz-adv-x="1459" arabic-form="final" 
d="M781 232v238.999h-499c-46 4.66699 -94 31.334 -144 80.001c-40.667 50.667 -61 100.667 -61 150v257l6 6h1023c117.333 0 176 -55 176 -165v-567h223v-232h-734c-134 0 -201 -65 -201 -195v-250c0 -34 15.333 -56.667 46 -68c8 -4 19 -6 33 -6h695l6 -6v-71l-6 -6h-1206
c-40.667 4 -61 18.667 -61 44v637v-84c0 2 0.333008 4.33301 1 7c0 153.333 68.333 230 205 230h498z" />
    <glyph glyph-name="uniFEA3" unicode="&#x62d;" horiz-adv-x="1692" arabic-form="initial" 
d="M950 232v238.999h-576c-46 4.66699 -93.667 31.334 -143 80.001c-41.333 50.667 -62 100.667 -62 150v257l6 6h1099c118 0 177 -55 177 -165v-567h130v-232h-1665v232h1034z" />
    <glyph glyph-name="uniFEA4" unicode="&#x62d;" horiz-adv-x="1607" arabic-form="medial" 
d="M1736 77l6 -6.00098v-65l-6 -6h-1865v232h1073v239h-576c-46 4.66699 -93.667 31.334 -143 80.001c-41.333 50.667 -62 100.667 -62 150v257l6 6h1099c118 0 177 -55 177 -165v-567h291v-155z" />
    <glyph glyph-name="uniFEA6" unicode="&#x62e;" horiz-adv-x="1459" arabic-form="final" 
d="M781 232v238.999h-499c-46 4.66699 -94 31.334 -144 80.001c-40.667 50.667 -61 100.667 -61 150v257l6 6h1023c117.333 0 176 -55 176 -165v-567h292v-232h-803c-134 0 -201 -65 -201 -195v-250c0 -34 15.333 -56.667 46 -68c8 -4 19 -6 33 -6h695l6 -6v-71l-6 -6h-1206
c-40.667 4 -61 18.667 -61 44v637v-84c0 2 0.333008 4.33301 1 7c0 153.333 68.333 230 205 230h498zM690 1558l40 0.000976562c52 0 107 -27.667 165 -83c40.667 -52 61 -107 61 -165c0 -98 -51 -173.667 -153 -227c-25.333 -10 -54 -15 -86 -15h-8
c-120 0 -199.667 63.333 -239 190l-6 55c0 73.333 31.333 137.666 94 192.999c49.333 34.667 93.333 52 132 52z" />
    <glyph glyph-name="uniFEA7" unicode="&#x62e;" horiz-adv-x="1637" arabic-form="initial" 
d="M736 1558l39.999 0.000976562c52 0 107 -27.667 165 -83c40.667 -52 61 -107 61 -165c0 -98 -51 -173.667 -153 -227c-25.333 -10 -54 -15 -86 -15h-8c-119.333 0 -199 63.333 -239 190l-6 55c0 73.333 31.667 137.666 95 192.999c48.667 34.667 92.334 52 131.001 52z
M942.999 232.001v238.999h-576c-45.333 4.66699 -93 31.334 -143 80.001c-40.667 50.667 -61 100.667 -61 150v257l5 6h1100c117.333 0 176 -55 176 -165v-567h138v-232h-1734v232h1095z" />
    <glyph glyph-name="uniFEA8" unicode="&#x62e;" horiz-adv-x="1614" arabic-form="medial" 
d="M729 1558l39.999 0.000976562c51.333 0 106.333 -27.667 165 -83c40.667 -52 61 -107 61 -165c0 -98 -51 -173.667 -153 -227c-26 -10 -54.667 -15 -86 -15h-9c-119.333 0 -198.666 63.333 -237.999 190l-7 55c0 73.333 31.667 137.666 95 192.999
c48.667 34.667 92.667 52 132 52zM1689 77.001l6 -6.00098v-65l-6 -6h-1750v232h1012v239h-576c-46 4.66699 -94 31.334 -144 80.001c-40.667 50.667 -61 100.667 -61 150v257l6 6h1098c118.667 0 178 -55 178 -165v-567h237v-155z" />
    <glyph glyph-name="uniFEAA" unicode="&#x62f;" horiz-adv-x="1451" arabic-form="final" 
d="M1604 79h1v-79h-604v0h-924v232h710v237l-220 -4h-398c-48 0 -78.667 25.667 -92 77v334c0 38.667 24.333 67 73 85h967c76 0 128.333 -26.333 157 -79c10 -27.333 15 -54 15 -80v-570h315v-153z" />
    <glyph glyph-name="uniFEAC" unicode="&#x630;" horiz-adv-x="1474" arabic-form="final" 
d="M654 1666l39.001 0.000976562c52 0 107.333 -27.333 166 -82c40.667 -52.667 61 -107.667 61 -165c0 -98 -51 -173.667 -153 -227c-25.333 -10 -54 -15 -86 -15h-9c-118.667 0 -198.334 63 -239.001 189l-6 56c0 73.333 31.667 137.666 95 192.999
c49.333 34 93.333 51 132 51zM1604 79.001h1v-79h-604v0h-924v232h710v237l-220 -4h-398c-48 0 -78.667 25.667 -92 77v334c0 38.667 24.333 67 73 85h967c76 0 128.333 -26.333 157 -79c10 -27.333 15 -54 15 -80v-570h315v-153z" />
    <glyph glyph-name="uniFEAE" unicode="&#x631;" horiz-adv-x="1087" arabic-form="final" 
d="M924 232l258 0.00195312v-232h-258v-276c0 -40.667 -27.333 -67.334 -82 -80.001h-759l-1 1h-5v232h264c73.333 0 110.333 41 111 123v840c-16 96 28 139 132 129h258c54.667 -14.667 82 -41.334 82 -80.001v-657z" />
    <glyph glyph-name="uniFEB0" unicode="&#x632;" horiz-adv-x="1087" arabic-form="final" 
d="M669 1529l40 0.000976562c51.333 0 106 -27.667 164 -83c41.333 -52.667 62 -107.667 62 -165c0 -98 -51 -173.667 -153 -227c-26 -10 -54.667 -15 -86 -15h-10c-118.667 0 -198 63.333 -238 190l-6 55c0 73.333 31.667 137.666 95 192.999
c48.667 34.667 92.667 52 132 52zM924 232.001l258 0.00195312v-232h-258v-276c0 -40.667 -27.333 -67.334 -82 -80.001h-759l-1 1h-5v232h264c73.333 0 110.333 41 111 123v840c-16 96 28 139 132 129h258c54.667 -14.667 82 -41.334 82 -80.001v-657z" />
    <glyph glyph-name="uniFEB2" unicode="&#x633;" horiz-adv-x="3133" arabic-form="final" 
d="M2969 232h232l2 -232h-523v0h-1019v-285c0 -31.333 -24.667 -56 -74 -74h-1418c-46 0 -76.667 22.667 -92 68v1180c0 29.333 22.333 54.666 67 75.999l34 4h297c65.333 -10 98 -40.667 98 -92v-1005h592l-2 1017c0 36 24.333 63.333 73 82h340
c34 0 61.667 -22.333 83 -67l1 -672h155v654c0 36 24.333 63.667 73 83h340c34 0 61.667 -22.667 83 -68l3 -48v-621h156v627c0 56 22.333 91.667 67 107l19 3h330c27.333 0 51 -15.333 71 -46c8 -13.333 12 -23.666 12 -30.999v-660z" />
    <glyph glyph-name="uniFEB3" unicode="&#x633;" horiz-adv-x="2033" arabic-form="initial" 
d="M656 0l-0.000976562 -3h-488v3h-197v0h-9v232h206v639c0 48 23.333 79.667 70 95l19 3h321c38 0 66.333 -22.667 85 -68l4 -27v-642h162v654c0 36 24.333 63.667 73 83h340c34 0 61.667 -22.667 83 -68l3 -48v-621h156v627c0 56 22.333 91.667 67 107l18 3h331
c26.667 0 50.334 -15.333 71.001 -46c7.33301 -13.333 11 -23.666 11 -30.999v-813c-14.667 -44.667 -47.667 -70.334 -99 -77.001h-187v-2h-1040z" />
    <glyph glyph-name="uniFEB4" unicode="&#x633;" horiz-adv-x="2142" arabic-form="medial" 
d="M657 0l0.000976562 -3.00098h-488v3h-366v232h366v639c0 48 23.333 79.667 70 95l19 3h321c38 0 66.333 -22.667 85 -68l3 -27v-642h163v654c0 36 24.333 63.667 73 83h340c34 0 61.333 -22.667 82 -68l4 -48v-621h155v627c0 56 22.333 91.667 67 107l19 3h331
c27.333 0 50.666 -15.333 69.999 -46c8 -13.333 12 -23.666 12 -30.999v-660h372v-153h1v-79h-472v0h-1227z" />
    <glyph glyph-name="uniFEB6" unicode="&#x634;" horiz-adv-x="3123" arabic-form="final" 
d="M2053 2047h39.999c52 0 107 -27.667 165 -83c40.667 -52 61 -107 61 -165c0 -98 -51 -173.333 -153 -226c-25.333 -10 -54 -15 -86 -15h-9c-118.667 0 -198 63 -238 189l-7 55c0 73.333 32 137.333 96 192c48.667 35.333 92.334 53 131.001 53zM1799 1551
c102 0 178.667 -55.002 230 -165.002l12 -67v-28c0 -73.333 -38.667 -138.666 -116 -195.999c-32.667 -22.667 -75.667 -34 -129 -34c-97.333 0 -168.666 42 -213.999 126c-20.667 32.667 -31 64.334 -31 95.001v46c0 51.333 25.333 103.333 76 156
c47.333 44.667 104.666 67 171.999 67zM2353 1551c92.667 0 165.999 -46.6689 219.999 -140.002c14.667 -30.667 22 -66.667 22 -108c0 -95.333 -46 -168.666 -138 -219.999c-24.667 -14.667 -60.334 -22 -107 -22c-93.333 0 -163.666 40 -211 120
c-22.667 35.333 -34 77 -34 125c0 92.667 44 165.334 132 218.001c34.667 18 73.334 27 116.001 27zM2969 231.996h239l3 -232h-531v0h-1019v-285c0 -31.333 -24.667 -56 -74 -74h-1418c-46 0 -76.667 22.667 -92 68v1180c0 29.333 22.333 54.666 67 75.999l34 4h297
c65.333 -10 98 -40.667 98 -92v-1005h592l-2 1017c0 36 24.333 63.333 73 82h340c34 0 61.667 -22.333 83 -67l1 -672h155v654c0 36 24.333 63.667 73 83h340c34 0 61.667 -22.667 83 -68l3 -48v-621h156v627c0 56 22.333 91.667 67 107l19 3h330
c27.333 0 51 -15.333 71 -46c8 -13.333 12 -23.666 12 -30.999v-660z" />
    <glyph glyph-name="uniFEB7" unicode="&#x634;" horiz-adv-x="2038" arabic-form="initial" 
d="M1053 2047h40c51.333 0 106.333 -27.667 165 -83c40.667 -52 61 -107 61 -165c0 -98 -51 -173.333 -153 -226c-25.333 -10 -54 -15 -86 -15h-9c-118.667 0 -198 63 -238 189l-7 55c0 73.333 31.667 137.333 95 192c49.333 35.333 93.333 53 132 53zM799 1551
c102 0 178.668 -55.002 230.001 -165.002l11 -67v-28c0 -73.333 -38.333 -138.666 -115 -195.999c-32.667 -22.667 -75.667 -34 -129 -34c-98 0 -169.667 42 -215 126c-20 32.667 -30 64.334 -30 95.001v46c0 51.333 25.333 103.333 76 156
c47.333 44.667 104.666 67 171.999 67zM1353 1551c92.667 0 165.999 -46.6689 219.999 -140.002c14.667 -30.667 22 -66.667 22 -108c0 -95.333 -46 -168.666 -138 -219.999c-24.667 -14.667 -60.334 -22 -107.001 -22c-93.333 0 -163.666 40 -210.999 120
c-22.667 35.333 -34 77 -34 125c0 92.667 44 165.334 132 218.001c34.667 18 73.334 27 116.001 27zM650 -0.00390625l0.000976562 -3h-488v3h-366v79h1v153h365v639c0 48 23.333 79.667 70 95l19 3h321c38 0 66.333 -22.667 85 -68l3 -27v-642h163v654
c0 36 24.333 63.667 73 83h340c34 0 61.333 -22.667 82 -68l4 -48v-621h155v627c0 56 22.333 91.667 67 107l19 3h331c27.333 0 50.666 -15.333 69.999 -46c8 -13.333 12 -23.666 12 -30.999v-813c-14.667 -44.667 -47.667 -70.334 -99 -77.001h-187v-2h-1040z" />
    <glyph glyph-name="uniFEB8" unicode="&#x634;" horiz-adv-x="2146" arabic-form="medial" 
d="M1052 2047h40c51.333 0 106.333 -27.667 165 -83c40.667 -52 61 -107 61 -165c0 -98 -51 -173.333 -153 -226c-25.333 -10 -54 -15 -86 -15h-9c-118.667 0 -198 63 -238 189l-7 55c0 73.333 31.667 137.333 95 192c49.333 35.333 93.333 53 132 53zM798 1551
c102 0 178.668 -55.002 230.001 -165.002l11 -67v-28c0 -73.333 -38.333 -138.666 -115 -195.999c-32.667 -22.667 -75.667 -34 -129 -34c-98 0 -169.667 42 -215 126c-20 32.667 -30 64.334 -30 95.001v46c0 51.333 25.333 103.333 76 156
c47.333 44.667 104.666 67 171.999 67zM1352 1551c92.667 0 165.999 -46.6689 219.999 -140.002c14.667 -30.667 22 -66.667 22 -108c0 -95.333 -46 -168.666 -138 -219.999c-24.667 -14.667 -60.334 -22 -107.001 -22c-93.333 0 -163.666 40 -210.999 120
c-22.667 35.333 -34 77 -34 125c0 92.667 44 165.334 132 218.001c34.667 18 73.334 27 116.001 27zM649 -0.00390625l0.000976562 -3.00098h-488v3h-366v232h366v639c0 48 23.333 79.667 70 95l19 3h321c38 0 66.333 -22.667 85 -68l3 -27v-642h163v654
c0 36 24.333 63.667 73 83h340c34 0 61.333 -22.667 82 -68l4 -48v-621h155v627c0 56 22.333 91.667 67 107l19 3h331c27.333 0 50.666 -15.333 69.999 -46c8 -13.333 12 -23.666 12 -30.999v-660h371v-153h2v-79h-472v0h-1227z" />
    <glyph glyph-name="uniFEBA" unicode="&#x635;" horiz-adv-x="3615" arabic-form="final" 
d="M2300 691v-472h649v459c0 30 -7.33301 48.333 -22 55l-36 6h-542c-32.667 0 -49 -16 -49 -48zM3444 232l349 0.000976562v-232h-1494v-252c0 -64 -34.667 -96 -104 -96h-296c-65.333 7.33301 -98 38 -98 92v256h-133v-285c0 -31.333 -24.667 -56 -74 -74h-1418
c-46 0 -76.667 22.667 -92 68v1180c0 29.333 22.333 54.666 67 75.999l34 4h297c65.333 -10 98 -40.667 98 -92v-1005h592l-2 1017c0 36 24.333 63.333 73 82h340c34 0 61.667 -22.333 83 -67l1 -672h135l2 652c0 37.333 24.667 65.333 74 84h1484
c26.667 0 49.667 -15.333 69 -46c8.66699 -14 13 -24.333 13 -31v-659z" />
    <glyph glyph-name="uniFEBB" unicode="&#x635;" horiz-adv-x="2601" arabic-form="initial" 
d="M853 0v-256c0 -54 33 -84.667 99 -92h296c69.333 0 104 32 104 96v252h1056l28 4c40.667 20 61 43 61 69v818c0 6.66699 -4.33301 17 -13 31c-19.333 30.667 -42.666 46 -70 46h-1484c-48.667 -18.667 -73 -46.667 -73 -84l-3 -652h-172v646
c0 48.667 -29.667 78.667 -89 90h-327c-55.333 -14.667 -83 -47.667 -83 -99v-637h-321v-232h10v0h471v0h510zM1405 754h542l37 -5c14 -6.66699 21 -25 21 -55v-460h-649v473c0 31.333 16.333 47 49 47z" />
    <glyph glyph-name="uniFEBC" unicode="&#x635;" horiz-adv-x="2636" arabic-form="medial" 
d="M1330 692v-457h648v445c0 29.333 -7 47.333 -21 54l-37 5h-542c-32 0 -48 -15.667 -48 -47zM2764 79h1v-79h-1436v-252c0 -64 -35 -96 -105 -96h-296c-65.333 7.33301 -98 38 -98 92v256h-510v0h-471v0h-6v232h317v637c0 51.333 27.667 84.333 83 99h327
c58.667 -11.333 88 -41.333 88 -90v-646h173l2 652c0 37.333 24.333 65.333 73 84h1484c27.333 0 51 -15.333 71 -46c8 -14 12 -24.333 12 -31v-659h291v-153z" />
    <glyph glyph-name="uniFEBE" unicode="&#x636;" horiz-adv-x="3607" arabic-form="final" 
d="M2308 691v-472h649v459c0 30 -7.33301 48.333 -22 55l-36 6h-542c-32.667 0 -49 -16 -49 -48zM2611 1566h40c52 0 107 -27.333 165 -82c40.667 -52.667 61 -107.667 61 -165c0 -98 -51 -173.667 -153 -227c-25.333 -10.667 -53.666 -16 -85 -16h-10
c-118.667 0 -198 63.667 -238 191l-7 54c0 74 32 138.333 96 193c48.667 34.667 92.334 52 131 52zM184 -359c-46 0 -76.667 22.668 -92 68.001v1180c0 29.333 22.333 54.666 67 75.999l34 4h297c65.333 -10 98 -40.667 98 -92v-1005h592l-2 1017c0 36 24.333 63.333 73 82
h340c34 0 61.667 -22.333 83 -67l1 -672h135l2 652c0 37.333 24.667 65.333 74 84h1484c26.667 0 49.667 -15.333 69 -46c8.66699 -14 13 -24.333 13 -31v-659h272v-232h-1417v-252c0 -64 -34.667 -96 -104 -96h-296c-65.333 7.33301 -98 38 -98 92v256h-133v-285
c0 -31.333 -24.667 -56 -74 -74h-1418z" />
    <glyph glyph-name="uniFEBF" unicode="&#x636;" horiz-adv-x="2701" arabic-form="initial" 
d="M1631 1558l39.999 0.000976562c51.333 0 106.333 -27.333 165 -82c40.667 -52.667 61 -107.667 61 -165c0 -98 -51 -173.667 -153 -227c-25.333 -10 -54 -15 -86 -15h-9c-119.333 0 -198.666 63.333 -237.999 190l-7 55c0 73.333 31.667 137.666 95 192.999
c48.667 34 92.667 51 132 51zM837.999 0.000976562v-256c0 -54 33 -84.667 99 -92h296c69.333 0 104 32 104 96v252h1056l28 4c40.667 20 61 43 61 69v818c0 6.66699 -4.33301 17 -13 31c-20 30.667 -43.333 46 -70 46h-1484c-49.333 -18.667 -74 -46.667 -74 -84l-2 -652
h-172v646c0 48.667 -29.667 78.667 -89 90h-327c-55.333 -14.667 -83 -47.667 -83 -99v-637h-214v-232h10v0h364v0h510zM1383 747.001l541 0.000976562l38 -6c14 -6.66699 21 -25.334 21 -56.001v-459h-649v472c0 32.667 16.333 49 49 49z" />
    <glyph glyph-name="uniFEC0" unicode="&#x636;" horiz-adv-x="2636" arabic-form="medial" 
d="M1653 1558l39.998 0.000976562c52 0 107 -27.333 165 -82c41.333 -52.667 62 -107.667 62 -165c0 -98 -51 -173.667 -153 -227c-26 -10 -54.667 -15 -86 -15h-10c-119.333 0 -198.666 63.333 -237.999 190l-6 55c0 73.333 31.667 137.666 95 192.999
c48.667 34 92.334 51 131.001 51zM2764 79.001h1v-79h-1436v-252c0 -64 -35 -96 -105 -96h-296c-65.333 7.33301 -98 38 -98 92v256h-510v0h-471v0h-6v232h317v637c0 51.333 27.667 84.333 83 99h327c58.667 -11.333 88 -41.333 88 -90v-646h173l2 652
c0 37.333 24.333 65.333 73 84h1484c27.333 0 51 -15.333 71 -46c8 -14 12 -24.333 12 -31v-659h291v-153zM1325 698.001v-472.001h649v459c0 30.667 -7 49.334 -21 56.001l-37 6h-541c-33.333 0 -50 -16.333 -50 -49z" />
    <glyph glyph-name="uniFEC2" unicode="&#x637;" horiz-adv-x="2193" arabic-form="final" 
d="M651 1705c55.333 -14.667 82.999 -42.332 82.999 -82.999v-478c0 -42.667 -23.333 -72 -70 -88h-350c-42 11.333 -63 25.666 -63 42.999c-7.33301 0 -12.666 18.333 -15.999 55v449c0 53.333 25.667 87.333 77 102h339zM733.999 708.002v-462l-3 -12h801v451
c0 35.333 -17 53 -51 53h-701c-30.667 -3.33301 -46 -13.333 -46 -30zM2256 79.002h1.99805v-79h-498v0h-1687v232h162v644c8.66699 61.333 37.334 92 86.001 92l21 2h1579c54.667 0 90.334 -24.333 107.001 -73v-665h228v-153z" />
    <glyph glyph-name="uniFEC3" unicode="&#x637;" horiz-adv-x="2071" arabic-form="initial" 
d="M575 1705c55.333 -14.667 83 -42.332 83 -82.999v-478c0 -42.667 -23.667 -72 -71 -88h-348c-43.333 11.333 -65 25.666 -65 42.999c-6.66699 0 -11.667 18.333 -15 55v449c0 53.333 25.333 87.333 76 102h340zM658 731.002v-485l-3 -12h802v474
c0 35.333 -17.667 53 -53 53h-700c-30.667 -3.33301 -46 -13.333 -46 -30zM159 232.002l-0.000976562 644c9.33301 61.333 38 92 86 92l21 2h1579c54.667 0 90.334 -24.333 107.001 -73v-824c0 -26 -20.333 -49 -61 -69l-28 -4h-1863v232h159z" />
    <glyph glyph-name="uniFEC4" unicode="&#x637;" horiz-adv-x="2305" arabic-form="medial" 
d="M668 1705c55.333 -14.667 83 -42.332 83 -82.999v-478c0 -42.667 -23.333 -72 -70 -88h-350c-42.667 11.333 -64 25.666 -64 42.999c-7.33301 0 -12.333 18.333 -15 55v449c0 53.333 25.667 87.333 77 102h339zM751 708.002v-462l-3 -12h801v451
c0 35.333 -17.333 53 -52 53h-700c-30.667 -3.33301 -46 -13.333 -46 -30zM2326 79.002h1.99805v-79h-551v0h-1802v232h277v644c8.66699 61.333 37.334 92 86.001 92l21 2h1579c54.667 0 90.334 -24.333 107.001 -73v-665h281v-153z" />
    <glyph glyph-name="uniFEC6" unicode="&#x638;" horiz-adv-x="2296" arabic-form="final" 
d="M651 1705c55.333 -14.667 82.999 -42.332 82.999 -82.999v-478c0 -42.667 -23.333 -72 -70 -88h-350c-42 11.333 -63 25.666 -63 42.999c-7.33301 0 -12.666 18.333 -15.999 55v449c0 53.333 25.667 87.333 77 102h339zM733.999 731.002v-485l-3 -12h801v474
c0 35.333 -17 53 -51 53h-701c-30.667 -3.33301 -46 -13.333 -46 -30zM2455 79.002h0.998047v-79h-696v0h-1687v232h162v644c8.66699 61.333 37.334 92 86.001 92l21 2h1579c54.667 0 90.334 -24.333 107.001 -73v-665h427v-153zM1026 1558l39 0.000976562
c52 0 107.333 -27.667 166 -83c40.667 -52 61 -107 61 -165c0 -98 -51 -173.667 -153 -227c-25.333 -10 -54 -15 -86 -15h-9c-119.333 0 -199 63.333 -239 190l-6 55c0 73.333 31.667 137.666 95 192.999c48.667 34.667 92.667 52 132 52z" />
    <glyph glyph-name="uniFEC7" unicode="&#x638;" horiz-adv-x="2079" arabic-form="initial" 
d="M575 1705c55.333 -14.667 83 -42.332 83 -82.999v-478c0 -42.667 -23.667 -72 -71 -88h-348c-43.333 11.333 -65 25.666 -65 42.999c-6.66699 0 -11.667 18.333 -15 55v449c0 53.333 25.333 87.333 76 102h340zM658 731.002v-485l-3 -12h802v474
c0 35.333 -17.667 53 -53 53h-700c-30.667 -3.33301 -46 -13.333 -46 -30zM159 232.002l-0.000976562 644c9.33301 61.333 38 92 86 92l21 2h1579c54.667 0 90.334 -24.333 107.001 -73v-824c0 -26 -20.333 -49 -61 -69l-28 -4h-1863v232h159zM956.999 1558l40 0.000976562
c52 0 107 -27.667 165 -83c40.667 -52 61 -107 61 -165c0 -98 -51 -173.667 -153 -227c-25.333 -10 -54 -15 -86 -15h-8c-120 0 -199.667 63.333 -239 190l-6 55c0 73.333 31.333 137.666 94 192.999c49.333 34.667 93.333 52 132 52z" />
    <glyph glyph-name="uniFEC8" unicode="&#x638;" horiz-adv-x="2139" arabic-form="medial" 
d="M577 1705c55.333 -14.667 83 -42.332 83 -82.999v-478c0 -42.667 -23.667 -72 -71 -88h-349c-42.667 11.333 -64 25.666 -64 42.999c-7.33301 0 -12.333 18.333 -15 55v449c0 53.333 25.667 87.333 77 102h339zM660 731.002v-485l-3 -12h801v474
c0 35.333 -17.333 53 -52 53h-700c-30.667 -3.33301 -46 -13.333 -46 -30zM2235 79.002h1.99805v-79h-551v0h-1825v232h300v644c8.66699 61.333 37.334 92 86.001 92l21 2h1579c54.667 0 90.334 -24.333 107.001 -73v-665h281v-153zM958.998 1558l39.001 0.000976562
c52.667 0 108 -27.667 166 -83c40.667 -52 61 -107 61 -165c0 -98 -51 -173.667 -153 -227c-25.333 -10 -54 -15 -86 -15h-9c-118.667 0 -198.334 63.333 -239.001 190l-6 55c0 73.333 31.667 137.666 95 192.999c49.333 34.667 93.333 52 132 52z" />
    <glyph glyph-name="uniFECA" unicode="&#x639;" horiz-adv-x="1490" arabic-form="final" 
d="M720 865v-540c4.66699 -32.667 21 -49 49 -49h8c33.333 4.66699 50 21 50 49v540c0 27.333 -15.333 44.666 -46 51.999h-15c-30.667 -7.33301 -46 -24.666 -46 -51.999zM1345 -604l-1 -0.000976562h-1206c-40.667 3.33301 -61 17.333 -61 42v554
c0 40.667 29.333 69 88 85h99v3c-2 0 -4.33301 0.333008 -7 1h191c-0.666992 118.667 -75.334 226.334 -224.001 323.001l-19 19v584c0 84 35 126 105 126h926c44.667 0 75.334 -16.667 92.001 -50c6 -8 10.333 -21 13 -39l-3 -76v-549c-91.333 -64.667 -156 -127 -194 -187
h409v-159l4 -2v-65l-4 -2v-4h-801c-118 0 -177.333 -61.833 -178 -185.5s39 -186.5 119 -188.5l660 3v-233h-8z" />
    <glyph glyph-name="uniFECB" unicode="&#x639;" horiz-adv-x="1359" arabic-form="initial" 
d="M511 0l0.000976562 -2.99805h-535v3h-6v232l357 -2c-107.333 17.333 -160 69.666 -158 156.999v243v411c0 41.333 24.333 72 73 92h891c27.333 0 52.666 -19.333 75.999 -58l6 -28v-578l-6 -6h-455l-7 6v392c-4 44.667 -22 67 -54 67
c-37.333 -8.66699 -56 -27.334 -56 -56.001l-1 -498c-0.666992 -94.667 47 -142 143 -142h519v-232h-787z" />
    <glyph glyph-name="uniFECC" unicode="&#x639;" horiz-adv-x="1467" arabic-form="medial" 
d="M689 865v-540c5.33301 -32.667 22 -49 50 -49h8c33.333 4.66699 50 21 50 49v540c0 27.333 -15.333 44.666 -46 51.999h-16c-30.667 -7.33301 -46 -24.666 -46 -51.999zM372 232c-36 60.667 -95.334 118 -178.001 172l-19 19v584c0 84 35 126 105 126h926
c44.667 0 75.334 -16.667 92.001 -50c6 -8 10.333 -21 13 -39l-4 -76v-549c-90.667 -64.667 -155 -127 -193 -187h414v-232h-1573v232h417z" />
    <glyph glyph-name="uniFECE" unicode="&#x63a;" horiz-adv-x="1510" arabic-form="final" 
d="M720 865v-540c4.66699 -32.667 21 -49 49 -49h8c33.333 4.66699 50 21 50 49v540c0 27.333 -15.333 44.666 -46 51.999h-15c-30.667 -7.33301 -46 -24.666 -46 -51.999zM1345 -604l-1 -0.000976562h-1206c-40.667 3.33301 -61 17.333 -61 42v554
c0 40.667 29.333 69 88 85h99v3c-2 0 -4.33301 0.333008 -7 1h191c-0.666992 118.667 -75.334 226.334 -224.001 323.001l-19 19v584c0 84 35 126 105 126h926c44.667 0 75.334 -16.667 92.001 -50c6 -8 10.333 -21 13 -39l-3 -76v-549c-91.333 -64.667 -156 -127 -194 -187
h425v-159l3 -2v-65l-3 -2v-4h-817c-118 0 -177.333 -61.833 -178 -185.5s39 -186.5 119 -188.5l660 3v-233h-8zM728 1726l40 0.000976562c52 0 107 -27.667 165 -83c40.667 -52 61 -106.667 61 -164c0 -98.667 -51 -174.334 -153 -227.001c-25.333 -10.667 -54 -16 -86 -16
h-8c-120 0 -199.667 63.667 -239 191l-6 54c0 74 31.333 138.333 94 193c49.333 34.667 93.333 52 132 52z" />
    <glyph glyph-name="uniFECF" unicode="&#x63a;" horiz-adv-x="1375" arabic-form="initial" 
d="M652 1726l40 0.000976562c52 0 107 -27.667 165 -83c40.667 -52 61 -106.667 61 -164c0 -98.667 -51 -174.334 -153 -227.001c-25.333 -10.667 -54 -16 -86 -16h-8c-120 0 -199.667 63.667 -239 191l-6 54c0 74 31.333 138.333 94 193c49.333 34.667 93.333 52 132 52z
M519 0.000976562l0.000976562 -2.99805h-558v3h-6v232l380 -2c-108 17.333 -160.667 69.666 -158 156.999v243v411c0 41.333 24.333 72 73 92h891c27.333 0 52.666 -19.333 75.999 -58l6 -28v-578l-6 -6h-455l-7 6v392c-4 44.667 -22.333 67 -55 67
c-36.667 -8.66699 -55 -27.334 -55 -56.001l-1 -498c-0.666992 -94.667 47 -142 143 -142h519v-232h-787z" />
    <glyph glyph-name="uniFED0" unicode="&#x63a;" horiz-adv-x="1478" arabic-form="medial" 
d="M705 1726l40 0.000976562c52 0 107 -27.667 165 -83c40.667 -52 61 -106.667 61 -164c0 -98.667 -51 -174.334 -153 -227.001c-25.333 -10.667 -54 -16 -86 -16h-8c-119.333 0 -199 63.667 -239 191l-6 54c0 74 31.333 138.333 94 193c49.333 34.667 93.333 52 132 52z
M681 850.001v-525c5.33301 -32.667 22 -49 50 -49h8c33.333 4.66699 50 21 50 49v525c0 26.667 -15.333 43.667 -46 51h-16c-30.667 -7.33301 -46 -24.333 -46 -51zM364 232.001c-36 60.667 -95.334 118 -178.001 172l-19 19v584c0 84 35 126 105 126h926
c44.667 0 75.334 -16.667 92.001 -50c6 -8 10.333 -21 13 -39l-4 -76v-549c-90.667 -64.667 -155 -127 -193 -187h430v-232h-1589v232h417z" />
    <glyph glyph-name="uniFED2" unicode="&#x641;" horiz-adv-x="2270" arabic-form="final" 
d="M1527 1711l39 0.000976562c52 0 107.333 -27.667 166 -83c40.667 -52 61 -107 61 -165c0 -98 -51 -173.667 -153 -227c-25.333 -10 -54 -15 -86 -15h-9c-119.333 0 -199 63.333 -239 190l-6 55c0 73.333 31.667 137.666 95 192.999c48.667 34.667 92.667 52 132 52z
M1492 876.001l-0.000976562 -390c6 -35.333 22.667 -53 50 -53h15c30.667 6 46 26.333 46 61v388c-7.33301 38.667 -25.666 58 -54.999 58c-33.333 0 -52 -21.333 -56 -64zM2100 232.001l243.001 -0.000976562v-153h2v-79h-2180c-42 0 -71.333 22.667 -88 68v976
c0 37.333 30.667 63.666 92 78.999h287c62.667 0 101.667 -24.333 117 -73v-774c0 -24 11 -38.667 33 -44h964c20.667 4.66699 31 16 31 34v6h-464c-36 0 -63.333 24.333 -82 73v694c7.33301 44.667 34.666 72.334 81.999 83.001h557c8 0.666992 16.667 1 26 1h264
c8.66699 0 17 -0.333008 25 -1h9c19.333 0 37.333 -9 53.999 -27c8.66699 -8 15.334 -17 20.001 -27c0.666992 -1.33301 1.66699 -2.66602 3 -3.99902l1 -4l4 -10v-7l1 -6v-760c0 -5.33301 -0.333008 -10.333 -1 -15v-30z" />
    <glyph glyph-name="uniFED3" unicode="&#x641;" horiz-adv-x="1280" arabic-form="initial" 
d="M622 1711l39 0.000976562c52.667 0 108 -27.667 166 -83c40.667 -52 61 -107 61 -165c0 -98 -51 -173.667 -153 -227c-25.333 -10 -54 -15 -86 -15h-9c-118.667 0 -198.334 63.333 -239.001 190l-6 55c0 73.333 32 137.666 96 192.999
c48.667 34.667 92.334 52 131.001 52zM598 876.001v-390c6 -35.333 22.333 -53 49 -53h15c30.667 6 46 26.333 46 61v388c-6.66699 38.667 -24.667 58 -54 58c-33.333 0 -52 -21.333 -56 -64zM-62 232.001l738 -0.00292969c20.667 4.66699 31 16 31 34v6h-464
c-36.667 0 -64 24.333 -82 73v694c7.33301 44.667 34.666 72.334 81.999 83.001h556c8.66699 0.666992 17.667 1 27 1h264c8.66699 0 16.667 -0.333008 24 -1h11c18.667 0 36.334 -9 53.001 -27c8 -8 14.667 -17 20 -27c0.666992 -1.33301 1.66699 -2.66602 3 -3.99902l1 -4
c2 -3.33301 3 -6.66602 3 -9.99902v-7l2 -6l-2 -964c0 -26 -20.333 -49 -61 -69l-27 -4h-1179v232z" />
    <glyph glyph-name="uniFED4" unicode="&#x641;" horiz-adv-x="1401" arabic-form="medial" 
d="M629 1703h40c52 0 107 -27.667 165 -83c40.667 -52 61 -106.667 61 -164c0 -98 -51 -173.667 -153 -227c-25.333 -10.667 -54 -16 -86 -16h-8c-119.333 0 -199 63.667 -239 191l-6 54c0 74 31.333 138.333 94 193c49.333 34.667 93.333 52 132 52zM613 876v-390
c6 -35.333 22.333 -53 49 -53h16c30.667 6 46 26.333 46 61v388c-7.33301 38.667 -26 58 -56 58c-32.667 0 -51 -21.333 -55 -64zM690 232c21.333 4.66699 31.999 15.998 31.999 33.998v6h-463c-37.333 0 -65.333 24.333 -84 73v694c8 44.667 36 72.334 84 83.001h556
c7.33301 0.666992 16 1 26 1h263c9.33301 0 18 -0.333008 26 -1h9c19.333 0 37.333 -9 54 -27c8.66699 -8 15.334 -17 20.001 -27c1.33301 -1.33301 2.33301 -2.66602 3 -3.99902l1 -4l4 -10v-7l2 -6v-760c0 -5.33301 -0.666992 -10.333 -2 -15v-30h220v-153h2v-79h-1487
l6 232h728z" />
    <glyph glyph-name="uniFED6" unicode="&#x642;" horiz-adv-x="2270" arabic-form="final" 
d="M1841 1703h39c52 0 107.333 -27.667 166 -83c40.667 -52 61 -106.667 61 -164c0 -98 -51 -173.667 -153 -227c-25.333 -10.667 -54 -16 -86 -16h-9c-119.333 0 -199 63.667 -239 191l-6 54c0 74 31.667 138.333 95 193c48.667 34.667 92.667 52 132 52zM1282 1711
l38.999 0.000976562c52.667 0 108 -27.667 166 -83c40.667 -52 61 -107 61 -165c0 -98 -51 -173.667 -153 -227c-25.333 -10 -53.666 -15 -84.999 -15h-10c-118.667 0 -198.334 63.333 -239.001 190l-6 55c0 73.333 32 137.666 96 192.999
c48.667 34.667 92.334 52 131.001 52zM1492 876.001l-0.000976562 -390c6 -35.333 22.667 -53 50 -53h15c30.667 6 46 26.333 46 61v388c-7.33301 38.667 -25.666 58 -54.999 58c-33.333 0 -52 -21.333 -56 -64zM2100 232.001l251.002 -0.000976562v-153h1v-79h-2187
c-42 0 -71.333 22.667 -88 68v976c0 37.333 30.667 63.666 92 78.999h287c62.667 0 101.667 -24.333 117 -73v-774c0 -24 11 -38.667 33 -44h964c20.667 4.66699 31 16 31 34v6h-464c-36 0 -63.333 24.333 -82 73v694c7.33301 44.667 34.666 72.334 81.999 83.001h557
c8 0.666992 16.667 1 26 1h264c8.66699 0 17 -0.333008 25 -1h9c19.333 0 37.333 -9 53.999 -27c8.66699 -8 15.334 -17 20 -27c0.666992 -1.33301 1.66699 -2.66602 3 -3.99902l1 -4l4 -10v-7l1 -6v-760c0 -5.33301 -0.333008 -10.333 -1 -15v-30z" />
    <glyph glyph-name="uniFED7" unicode="&#x642;" horiz-adv-x="1303" arabic-form="initial" 
d="M968 1703h39.999c52.667 0 107.667 -27.667 165 -83c40.667 -52 61 -106.667 61 -164c0 -98 -51 -173.667 -153 -227c-25.333 -10.667 -53.666 -16 -84.999 -16h-9c-119.333 0 -199 63.667 -239 191l-6 54c0 74 31.667 138.333 95 193c49.333 34.667 93 52 131 52z
M409.999 1711l39.999 0.000976562c52 0 107 -27.667 165 -83c40.667 -52 61 -107 61 -165c0 -98 -51 -173.667 -153 -227c-25.333 -10 -53.666 -15 -84.999 -15h-9c-120 0 -199.667 63.333 -239 190l-6 55c0 73.333 31.333 137.666 94 192.999
c49.333 34.667 93.333 52 132 52zM604.998 876.001v-390c6 -35.333 22.333 -53 49 -53h15c30.667 6 46 26.333 46 61v388c-6.66699 38.667 -24.667 58 -54 58c-33.333 0 -52 -21.333 -56 -64zM-55.002 232.001l738 -0.00292969c20.667 4.66699 31 16 31 34v6h-464
c-36.667 0 -64 24.333 -82 73v694c7.33301 44.667 34.666 72.334 81.999 83.001h556c8.66699 0.666992 17.667 1 27 1h264c8.66699 0 16.667 -0.333008 24 -1h11c18.667 0 36.334 -9 53.001 -27c8 -8 14.667 -17 20 -27c0.666992 -1.33301 1.66699 -2.66602 3 -3.99902l1 -4
c2 -3.33301 3 -6.66602 3 -9.99902v-7l2 -6l-2 -964c0 -26 -20.333 -49 -61 -69l-27 -4h-1179v232z" />
    <glyph glyph-name="uniFED8" unicode="&#x642;" horiz-adv-x="1367" arabic-form="medial" 
d="M955 1703h39c52 0 107 -27.667 165 -83c41.333 -52 62 -106.667 62 -164c0 -98 -51 -173.667 -153 -227c-26 -10.667 -54.667 -16 -86 -16h-10c-118.667 0 -198 63.667 -238 191l-6 54c0 74 31.667 138.333 95 193c48.667 34.667 92.667 52 132 52zM396 1711
l39 0.000976562c52 0 107.333 -27.667 166 -83c40.667 -52 61 -107 61 -165c0 -98 -51 -173.667 -153 -227c-25.333 -10 -54 -15 -86 -15h-9c-119.333 0 -199 63.333 -239 190l-6 55c0 73.333 31.667 137.666 95 192.999c48.667 34.667 92.667 52 132 52zM598 876.001
l-0.000976562 -390c6 -35.333 22.667 -53 50 -53h15c30.667 6 46 26.333 46 61v388c-7.33301 38.667 -25.666 58 -54.999 58c-33.333 0 -52 -21.333 -56 -64zM675.999 232.001c20.667 4.66699 31 15.999 31 33.999v6h-463c-36.667 0 -64.334 24.333 -83.001 73v694
c8 44.667 35.667 72.334 83 83.001h556c8 0.666992 16.667 1 26 1h264c8.66699 0 17 -0.333008 25 -1h10c18.667 0 36.334 -9 53.001 -27c8.66699 -8 15.667 -17 21 -27l2 -4l1 -4l4 -10v-7l2 -6v-760c0 -5.33301 -0.666992 -10.333 -2 -15v-30h213v-153h1v-79h-1471l6 232
h721z" />
    <glyph glyph-name="uniFEDE" unicode="&#x644;" horiz-adv-x="1606" arabic-form="final" 
d="M958 -128l-0.000976562 1691c0 36 24.667 63.333 74 82h340c34 0 61.333 -22.333 82 -67v-1346h217v-153h7v-79h-224v-285c0 -31.333 -24.333 -56 -73 -74h-1162c-79.333 0 -126.666 22.667 -141.999 68v823c0 29.333 22.333 54.666 67 75.999l34 3h297
c65.333 -9.33301 98 -40 98 -92v-647h385z" />
    <glyph glyph-name="uniFEDF" unicode="&#x644;" horiz-adv-x="769" arabic-form="initial" 
d="M-74 0l0.000976562 232h135c82 0 123 40.667 123 122v1219c0 16.667 3.33301 28.667 10 36c20.667 32.667 45 49 73 49h328c37.333 0 64.666 -24.333 81.999 -73v-1508c-12 -51.333 -42.333 -77 -91 -77h-660z" />
    <glyph glyph-name="uniFEE0" unicode="&#x644;" horiz-adv-x="855" arabic-form="medial" 
d="M176 232v1323c0 51.333 23 84 69 98l25 3h310c40.667 0 70 -20.333 88 -61c4 -9.33301 6 -25.666 6 -48.999v-1314h240v-232h-972v232h234z" />
    <glyph glyph-name="uniFEE2" unicode="&#x645;" horiz-adv-x="1374" arabic-form="final" 
d="M637 713l0.000976562 -459.001c0 -26 16.333 -41.333 49 -46h6c29.333 0 46.666 18.333 51.999 55v440c0 32.667 -18.333 52.334 -55 59.001c-28.667 0 -46 -16.333 -52 -49zM1212 231.999l239 0.000976562v-232h-317h-13h-487v-276
c0 -40.667 -27.333 -67.334 -82 -80.001h-758l-1 1h-6v232h241c88.667 0 133.334 43 134.001 129v834c-12.667 74 10.666 116.333 69.999 127c2 1.33301 4.33301 2 7 2h866c50 0 84 -20.333 102 -61l5 -21v-655z" />
    <glyph glyph-name="uniFEE3" unicode="&#x645;" horiz-adv-x="1374" arabic-form="initial" 
d="M637 759l0.000976562 -505.001c0 -26 16.667 -41.333 50 -46h6c29.333 0 46.666 18.333 51.999 55v486c0 32.667 -18.333 52.334 -55 59.001c-29.333 0 -47 -16.333 -53 -49zM167.001 231.999v655.002c0 37.333 24.333 64.666 73 81.999h866c50 0 83.667 -20.333 101 -61
l6 -21v-796c-7.33301 -60.667 -38 -91 -92 -91h-484c0 -0.666992 0.333008 -1.33398 1 -2.00098h-471v2h-195v0h-12v232h207z" />
    <glyph glyph-name="uniFEE4" unicode="&#x645;" horiz-adv-x="1382" arabic-form="medial" 
d="M638 751v-490c0 -26 16 -41.333 48 -46h7c28.667 0 46 18.667 52 56v471c0 32 -18.667 51.333 -56 58c-28.667 0 -45.667 -16.333 -51 -49zM1213 232l217 0.000976562v-232h-4v0h-788v-2h-472v2h-211v79h3v153h208v655c0 37.333 24.667 64.666 74 81.999h866
c50 0 83.333 -20.333 100 -61l7 -21v-655z" />
    <glyph glyph-name="uniFEE6" unicode="&#x646;" horiz-adv-x="1824" arabic-form="final" 
d="M858 625l35.001 0.000976562c45.333 0 96.333 -25 153 -75c31.333 -48.667 47 -82.667 47 -102l4 -44v-8c0 -56.667 -18.333 -105.334 -55 -146.001c-48.667 -46.667 -94.334 -70 -137.001 -70h-62c-36 2.66699 -75.333 20.667 -118 54c-46.667 49.333 -70 106 -70 170
c0 92.667 49.333 162.667 148 210zM1165 -127.999l-2 1016c0 36 24.333 63.333 73 82h340c34 0 61.667 -22.333 83 -67l1 -671h236v-232h-30v0h-206l1 -285c0 -31.333 -24.667 -56 -74 -74h-1418c-46 0 -76.667 22.667 -92 68v1179c0 29.333 22.333 54.666 67 75.999l34 4
h297c65.333 -10 98 -40.667 98 -92v-1004h592z" />
    </font>
</defs>
</svg>
